<svg xmlns="http://www.w3.org/2000/svg" xmlns:xlink="http://www.w3.org/1999/xlink" width="2079" zoomAndPan="magnify" viewBox="0 0 1559.25 1559.249931" height="2079" preserveAspectRatio="xMidYMid meet" version="1.0"><defs><clipPath id="27c519b373"><path d="M 0 0 L 1558.5 0 L 1558.5 1558.5 L 0 1558.5 Z M 0 0 " clip-rule="nonzero"/></clipPath><clipPath id="cccff6f992"><path d="M 69.296875 69.296875 L 1489.199219 69.296875 L 1489.199219 1489.199219 L 69.296875 1489.199219 Z M 69.296875 69.296875 " clip-rule="nonzero"/></clipPath><clipPath id="22435f4989"><path d="M 779.25 69.296875 C 387.152344 69.296875 69.296875 387.152344 69.296875 779.25 C 69.296875 1171.34375 387.152344 1489.199219 779.25 1489.199219 C 1171.34375 1489.199219 1489.199219 1171.34375 1489.199219 779.25 C 1489.199219 387.152344 1171.34375 69.296875 779.25 69.296875 Z M 779.25 69.296875 " clip-rule="nonzero"/></clipPath><clipPath id="e61df3aba7"><path d="M 309.523438 305.722656 L 1276.570312 305.722656 L 1276.570312 1226.550781 L 309.523438 1226.550781 Z M 309.523438 305.722656 " clip-rule="nonzero"/></clipPath><clipPath id="c3374aef66"><rect x="0" width="1559" y="0" height="1559"/></clipPath></defs><g clip-path="url(#27c519b373)"><g transform="matrix(1, 0, 0, 1, 0, 0.000000000000078219)"><g clip-path="url(#c3374aef66)"><g clip-path="url(#cccff6f992)"><g clip-path="url(#22435f4989)"><path stroke-linecap="butt" transform="matrix(0.749733, 0, 0, 0.749733, 69.298666, 69.298612)" fill="none" stroke-linejoin="miter" d="M 946.938755 -0.00231653 C 423.955772 -0.00231653 -0.00238921 423.955845 -0.00238921 946.938828 C -0.00238921 1469.916601 423.955772 1893.874762 946.938755 1893.874762 C 1469.916528 1893.874762 1893.874689 1469.916601 1893.874689 946.938828 C 1893.874689 423.955845 1469.916528 -0.00231653 946.938755 -0.00231653 Z M 946.938755 -0.00231653 " stroke="#ff3131" stroke-width="66" stroke-opacity="1" stroke-miterlimit="4"/></g></g><path fill="#ff0000" d="M 594.53125 576.472656 C 594.320312 575.953125 593.867188 576.039062 594.53125 576.472656 " fill-opacity="1" fill-rule="nonzero"/><path fill="#ff0000" d="M 891.300781 848.992188 C 891.40625 849.117188 891.488281 849.148438 891.601562 849.253906 C 892.585938 848.621094 893.4375 848.09375 894.132812 847.71875 L 891.300781 848.992188 " fill-opacity="1" fill-rule="nonzero"/><path fill="#ff0000" d="M 934.183594 898.144531 C 934.214844 898.332031 934.234375 898.453125 934.265625 898.632812 C 934.699219 898.113281 935.207031 897.667969 934.183594 898.144531 " fill-opacity="1" fill-rule="nonzero"/><path fill="#ff0000" d="M 510.417969 494.320312 C 510.417969 494.320312 510.5625 494.402344 510.675781 494.476562 C 510.695312 494.15625 510.664062 493.863281 510.738281 493.503906 L 510.417969 494.320312 " fill-opacity="1" fill-rule="nonzero"/><path fill="#ff0000" d="M 512.636719 494.714844 C 512.324219 495.304688 511.132812 494.726562 510.675781 494.476562 C 510.511719 496.675781 511.484375 497.90625 513.0625 498.621094 C 514.171875 497.636719 512.769531 496.03125 512.636719 494.714844 " fill-opacity="1" fill-rule="nonzero"/><path fill="#ff0000" d="M 512.699219 494.03125 C 512.625 494.25 512.613281 494.476562 512.636719 494.714844 C 512.71875 494.570312 512.761719 494.363281 512.699219 494.03125 " fill-opacity="1" fill-rule="nonzero"/><path fill="#ff0000" d="M 367.386719 332.515625 L 368.339844 332.566406 C 368.027344 332.484375 367.707031 332.484375 367.386719 332.515625 " fill-opacity="1" fill-rule="nonzero"/><path fill="#ff0000" d="M 388.109375 359.785156 L 390.472656 358.304688 C 389.375 358.78125 388.671875 359.277344 388.109375 359.785156 " fill-opacity="1" fill-rule="nonzero"/><path fill="#ff0000" d="M 894.132812 847.71875 L 895.210938 847.253906 C 894.929688 847.324219 894.558594 847.5 894.132812 847.71875 " fill-opacity="1" fill-rule="nonzero"/><path fill="#ff0000" d="M 977.269531 939.675781 C 976.71875 940.316406 976.378906 940.910156 976.109375 941.449219 C 976.160156 941.5 976.203125 941.542969 976.222656 941.582031 L 977.269531 939.675781 " fill-opacity="1" fill-rule="nonzero"/><path fill="#ff0000" d="M 1181.65625 1166.261719 C 1181.84375 1165.96875 1182.019531 1165.648438 1182.175781 1165.296875 L 1180.027344 1166.136719 C 1180.652344 1166.386719 1181.179688 1166.414062 1181.65625 1166.261719 " fill-opacity="1" fill-rule="nonzero"/><path fill="#ff0000" d="M 1030.839844 1002.902344 C 1031.097656 1002.714844 1031.441406 1002.621094 1031.679688 1002.363281 C 1031.234375 1000.746094 1028.589844 998.144531 1024.960938 995.097656 L 1022.523438 997.460938 L 1030.839844 1002.902344 " fill-opacity="1" fill-rule="nonzero"/><path fill="#ff0000" d="M 1014.800781 975.308594 L 1016.066406 975.113281 C 1015.578125 975.101562 1015.175781 975.183594 1014.800781 975.308594 " fill-opacity="1" fill-rule="nonzero"/><path fill="#ff0000" d="M 421.183594 391.886719 C 421.328125 391.988281 421.484375 392.09375 421.617188 392.207031 C 421.484375 391.980469 421.339844 391.894531 421.183594 391.886719 " fill-opacity="1" fill-rule="nonzero"/><path fill="#ff0000" d="M 1142.632812 1186.359375 L 1142.382812 1186.191406 C 1140.964844 1188.078125 1141.855469 1187.644531 1142.632812 1186.359375 " fill-opacity="1" fill-rule="nonzero"/><path fill="#ff0000" d="M 1060.582031 1037.269531 C 1060.699219 1037.394531 1060.800781 1037.519531 1060.914062 1037.632812 L 1061.652344 1033.890625 L 1060.582031 1037.269531 " fill-opacity="1" fill-rule="nonzero"/><path fill="#ff0000" d="M 1135.242188 1097.179688 C 1136.414062 1098.296875 1137.636719 1099.042969 1138.890625 1099.105469 C 1135.851562 1095.726562 1135.335938 1096.050781 1135.242188 1097.179688 " fill-opacity="1" fill-rule="nonzero"/><path fill="#ff0000" d="M 1175.28125 1205.292969 C 1177.09375 1206.890625 1177.199219 1205.199219 1177.011719 1203.085938 C 1174.875 1201.84375 1173.425781 1200.929688 1173.425781 1200.929688 C 1174.171875 1202.195312 1174.511719 1204 1175.28125 1205.292969 " fill-opacity="1" fill-rule="nonzero"/><path fill="#ff0000" d="M 1186.601562 1173.683594 L 1188.332031 1172.59375 C 1186.945312 1172.128906 1186.570312 1172.71875 1186.601562 1173.683594 " fill-opacity="1" fill-rule="nonzero"/><path fill="#ff0000" d="M 563.664062 899.355469 C 563.136719 899.625 563.238281 900.082031 563.664062 899.355469 " fill-opacity="1" fill-rule="nonzero"/><path fill="#ff0000" d="M 856.394531 587.492188 C 856.527344 587.386719 856.550781 587.292969 856.675781 587.179688 C 856.105469 586.152344 855.625 585.261719 855.316406 584.535156 L 856.394531 587.492188 " fill-opacity="1" fill-rule="nonzero"/><path fill="#ff0000" d="M 910.90625 544.683594 C 911.105469 544.664062 911.238281 544.640625 911.414062 544.609375 C 910.925781 544.15625 910.523438 543.605469 910.90625 544.683594 " fill-opacity="1" fill-rule="nonzero"/><path fill="#ff0000" d="M 750.957031 707.816406 C 751.027344 707.402344 751.121094 706.996094 751.378906 706.601562 C 750.914062 706.976562 750.863281 707.390625 750.957031 707.816406 " fill-opacity="1" fill-rule="nonzero"/><path fill="#ff0000" d="M 483.667969 997.222656 C 483.667969 997.222656 483.742188 997.054688 483.792969 996.929688 C 483.460938 996.960938 483.179688 997.042969 482.796875 997.042969 L 483.667969 997.222656 " fill-opacity="1" fill-rule="nonzero"/><path fill="#ff0000" d="M 483.835938 994.847656 C 484.46875 995.066406 484 996.402344 483.792969 996.929688 C 486.03125 996.660156 487.246094 995.5 487.847656 993.757812 C 486.738281 992.796875 485.171875 994.472656 483.835938 994.847656 " fill-opacity="1" fill-rule="nonzero"/><path fill="#ff0000" d="M 483.128906 994.898438 C 483.347656 994.953125 483.585938 994.910156 483.835938 994.847656 C 483.667969 994.785156 483.460938 994.785156 483.128906 994.898438 " fill-opacity="1" fill-rule="nonzero"/><path fill="#ff0000" d="M 342.453125 1176.023438 L 342.335938 1175.070312 C 342.304688 1175.390625 342.367188 1175.714844 342.453125 1176.023438 " fill-opacity="1" fill-rule="nonzero"/><path fill="#ff0000" d="M 816.78125 761.824219 C 816.664062 762.179688 816.449219 762.5 816.363281 762.84375 C 816.769531 762.5 816.832031 762.15625 816.78125 761.824219 " fill-opacity="1" fill-rule="nonzero"/><path fill="#ff0000" d="M 366.164062 1150.164062 L 364.265625 1148.132812 C 364.9375 1149.117188 365.5625 1149.71875 366.164062 1150.164062 " fill-opacity="1" fill-rule="nonzero"/><path fill="#ff0000" d="M 855.316406 584.535156 L 854.921875 583.417969 C 854.972656 583.71875 855.117188 584.101562 855.316406 584.535156 " fill-opacity="1" fill-rule="nonzero"/><path fill="#ff0000" d="M 958.433594 502.417969 C 959.023438 503.015625 959.59375 503.410156 960.101562 503.710938 C 960.164062 503.660156 960.214844 503.628906 960.257812 503.609375 L 958.433594 502.417969 " fill-opacity="1" fill-rule="nonzero"/><path fill="#ff0000" d="M 1225.84375 322.636719 L 1226.226562 324.941406 C 1226.601562 324.347656 1226.753906 323.808594 1226.703125 323.3125 C 1226.445312 323.074219 1226.164062 322.847656 1225.84375 322.636719 " fill-opacity="1" fill-rule="nonzero"/><path fill="#ff0000" d="M 1030.496094 452.179688 C 1030.339844 451.886719 1030.289062 451.535156 1030.0625 451.265625 C 1028.351562 451.597656 1025.324219 454.09375 1021.695312 457.566406 L 1023.757812 460.261719 L 1030.496094 452.179688 " fill-opacity="1" fill-rule="nonzero"/><g clip-path="url(#e61df3aba7)"><path fill="#ff0000" d="M 1276.550781 305.734375 C 1276.550781 305.734375 1274.675781 306.96875 1271.75 308.769531 C 1270.269531 309.652344 1268.578125 310.769531 1266.640625 311.753906 C 1264.710938 312.75 1262.605469 313.785156 1260.449219 314.8125 C 1258.316406 315.871094 1256.011719 316.71875 1253.785156 317.570312 C 1251.542969 318.378906 1249.386719 319.21875 1247.261719 319.769531 C 1243.03125 320.917969 1239.382812 321.738281 1236.832031 321.769531 C 1244.992188 315.902344 1238.078125 319.394531 1235.214844 319.230469 L 1235.878906 320.8125 C 1230.5625 323.757812 1227.824219 320.824219 1224.953125 321.921875 C 1225.167969 322.160156 1225.5 322.390625 1225.84375 322.636719 L 1225.738281 321.996094 C 1226.425781 322.339844 1226.652344 322.804688 1226.703125 323.3125 C 1227.347656 323.894531 1227.617188 324.578125 1226.289062 325.457031 L 1226.226562 324.941406 C 1224.835938 326.980469 1221.363281 329.335938 1219.789062 330.257812 L 1217.527344 327.71875 C 1217.796875 329.625 1216.171875 331.28125 1213.539062 332.722656 C 1210.863281 334.121094 1207.203125 335.324219 1203.355469 336.308594 C 1195.664062 338.289062 1187.328125 339.554688 1185.035156 341.203125 C 1177.957031 341.316406 1175.683594 349.816406 1168.75 352.582031 C 1159.117188 358.84375 1161.179688 352.292969 1154.792969 353.648438 C 1147.765625 356.71875 1158.464844 355.742188 1156.328125 357.816406 C 1156.328125 357.816406 1153.882812 358.3125 1151.433594 358.820312 C 1150.210938 359.082031 1148.976562 359.339844 1148.054688 359.527344 C 1147.132812 359.746094 1146.511719 359.898438 1146.511719 359.898438 C 1150.203125 356.199219 1146.738281 356.488281 1145.152344 356.085938 C 1138.527344 361.007812 1126.105469 363.964844 1128.894531 370.542969 C 1119.378906 374.761719 1117.542969 372.761719 1114.175781 375.363281 C 1116.050781 375.324219 1118.902344 374.265625 1119.835938 375.269531 C 1114.890625 375.707031 1118.921875 377.085938 1120.570312 376.492188 C 1118.0625 382.734375 1089 388.363281 1093.054688 394.734375 L 1092.144531 393.71875 C 1094.816406 398.777344 1100.09375 401.253906 1099.027344 406.355469 L 1095.273438 406.40625 L 1093.730469 411.019531 C 1090.410156 411.589844 1090.453125 409.558594 1089.996094 409.050781 C 1086.585938 415.578125 1077.390625 419.777344 1070.671875 424.835938 L 1087.40625 430.089844 C 1079.828125 432.234375 1065.601562 435.511719 1067.851562 440.070312 L 1061.300781 439.191406 C 1044.328125 441.59375 1056.851562 448.984375 1050.714844 450.644531 L 1041.746094 451.371094 L 1047.023438 446.652344 C 1039.921875 449.367188 1036.613281 449.960938 1030.011719 451.121094 C 1030.050781 451.164062 1030.03125 451.234375 1030.0625 451.265625 C 1030.507812 451.171875 1030.871094 451.203125 1031.128906 451.410156 L 1030.496094 452.179688 C 1031.71875 454.789062 1030.28125 458.6875 1026.472656 461.921875 C 1020.730469 466.148438 1019.402344 472.886719 1007.097656 476.234375 L 1008.851562 482.296875 L 1000.308594 485.5625 L 997.25 482.257812 C 1003.574219 476.824219 1013.960938 464.96875 1021.695312 457.566406 L 1020.441406 455.917969 C 1015.765625 460.222656 1011.792969 466.574219 1008.402344 469.074219 C 1006.507812 469.726562 1000.660156 469.859375 1000.015625 466.410156 L 1000.089844 470.980469 C 992.449219 478.339844 988.644531 482.082031 984.269531 485.375 C 979.902344 488.683594 974.957031 491.523438 965.160156 497.285156 L 968.105469 497.617188 C 965.804688 501.609375 963.492188 505.554688 960.101562 503.710938 C 949.898438 512.292969 937.914062 519.671875 927.703125 521.464844 L 929.960938 526.617188 C 927.710938 528.328125 919.140625 525.394531 923.234375 531.738281 L 920.476562 537.550781 C 917.398438 539.894531 917.769531 543.710938 912.484375 544.496094 C 912.460938 544.496094 912.453125 544.507812 912.453125 544.507812 C 912.128906 544.550781 911.777344 544.601562 911.414062 544.609375 C 911.527344 544.734375 911.644531 544.820312 911.757812 544.902344 C 903.804688 549.171875 915.09375 548.289062 905.742188 552.902344 C 900.808594 552.363281 907.816406 560.199219 903.453125 562.644531 L 894.660156 560.511719 C 885.320312 563.507812 889.519531 570.078125 880.40625 579 C 874.132812 581.324219 867.488281 578.730469 866.386719 571.757812 C 867.238281 580.671875 867.726562 576.792969 864.75 584.378906 C 861.941406 583.117188 862.074219 582.132812 861.453125 579.136719 C 854.394531 581.324219 860.34375 583.832031 856.675781 587.179688 C 859.410156 592.0625 864.222656 599.378906 863.320312 600.746094 L 865.871094 600.613281 C 864.128906 606.34375 860.976562 611.296875 854.714844 613.621094 L 852.972656 611.515625 L 849.292969 617.03125 L 846.566406 614.84375 L 840.675781 622.078125 L 842.253906 621.859375 C 841.007812 623.703125 836.738281 629.539062 832.539062 631.105469 L 831.285156 629.632812 C 818.71875 633.386719 817.703125 645.730469 808.621094 655.667969 L 807.074219 651.628906 C 801.074219 652.105469 810.476562 656.808594 805.242188 659.289062 L 801.621094 656.054688 C 802.722656 663.953125 796.273438 659.496094 792.230469 660.136719 L 797.808594 663.527344 L 792.457031 666.988281 C 786.113281 670.367188 783.800781 664.3125 782.164062 661.257812 L 782.390625 668.097656 L 777.777344 664.789062 C 779.972656 671.808594 774.613281 666.46875 772.851562 673.175781 C 771.007812 672.027344 771.214844 670.097656 769.140625 670.90625 L 767.761719 683.46875 L 769.484375 676.78125 L 774.769531 683.0625 C 774.800781 691.832031 768.21875 688.414062 766.726562 693.167969 L 767.140625 689.28125 C 763.46875 695.832031 760.722656 693.648438 756.566406 695.285156 C 758.535156 695.449219 761.5 695.667969 760.203125 698.496094 C 759.011719 700.351562 757.34375 697.304688 755.269531 698.125 C 758.792969 702.300781 757.207031 708.023438 752.066406 709.566406 C 751.558594 708.976562 751.089844 708.375 750.957031 707.816406 C 750.738281 709.285156 751.308594 710.71875 748.902344 711.289062 L 745.460938 706.144531 L 746.734375 713.058594 C 743.667969 713.804688 744.050781 719.671875 741.386719 716.554688 L 741.59375 714.613281 L 739.332031 716.59375 C 738.171875 715.183594 738.152344 713.671875 741.199219 711.628906 C 732.542969 702.457031 721.386719 704.34375 713.375 690.507812 C 714.855469 680.992188 702.351562 672.542969 695.851562 665.164062 C 687.785156 659.734375 680.953125 655.441406 674.234375 650.984375 C 667.527344 646.519531 660.851562 641.9375 652.960938 636.007812 C 652.660156 627.914062 646.699219 623.519531 640.34375 619.382812 C 634.007812 615.238281 627.136719 611.433594 624.90625 604.738281 L 619.328125 605.410156 C 618.851562 599.960938 614.828125 596.488281 610.484375 592.722656 C 606.160156 588.953125 601.621094 584.816406 599.984375 578.214844 C 596.59375 577.5 595.109375 576.835938 594.53125 576.472656 C 594.746094 577 594.707031 578.160156 592.871094 580.296875 C 591.949219 576.515625 585.457031 573.351562 589.824219 569.808594 L 590.828125 570.027344 C 595.214844 566.492188 581.859375 564.523438 582.761719 558.488281 L 579.847656 564.105469 L 576.167969 558.832031 L 578.179688 559.265625 C 563.914062 553.816406 558.128906 545.460938 552.59375 537.253906 C 549.84375 533.125 547.097656 529.0625 543.488281 525.28125 C 539.902344 521.476562 535.363281 518.035156 528.789062 515.246094 C 535.941406 513.421875 522.816406 513.746094 527.9375 508.71875 C 530.332031 497.886719 518.453125 501.039062 513.0625 498.621094 C 512.800781 498.851562 512.449219 499.078125 511.828125 499.214844 C 511.828125 499.214844 510.394531 497.347656 509.070312 495.417969 C 507.722656 493.503906 506.363281 491.585938 506.363281 491.585938 C 516.824219 489.894531 496.335938 491.386719 505.480469 490.238281 C 500.132812 478.734375 491.113281 468.242188 481.261719 457.382812 C 471.351562 446.382812 460.777344 435.304688 452.722656 423.332031 L 451.746094 425.777344 C 447.390625 419.921875 439.378906 414.800781 438.671875 408.199219 C 437.957031 401.597656 426.335938 402.738281 424.667969 401.328125 C 418.375 399.472656 419.835938 391.761719 421.183594 391.886719 C 416.019531 388 406.222656 388.351562 403.238281 379.449219 C 407.15625 372.191406 381.640625 365.527344 388.109375 359.785156 L 387.488281 360.179688 C 384.742188 347.472656 369.789062 345.804688 366.027344 332.796875 C 366.027344 332.796875 366.671875 332.566406 367.386719 332.515625 L 330.976562 330.039062 L 313.441406 354.042969 L 309.523438 385.761719 L 351.585938 427.769531 L 374.996094 469.746094 C 374.996094 469.746094 394.125 491.234375 413.253906 512.707031 C 423.089844 523.683594 432.941406 534.652344 440.332031 542.890625 C 447.691406 551.191406 452.792969 556.5 452.792969 556.5 L 463.277344 558.449219 C 464.996094 564.644531 468.148438 570.140625 472.058594 575.261719 C 475.984375 580.371094 480.609375 585.179688 485.523438 589.738281 C 495.269531 598.964844 505.441406 608.042969 510.976562 619.921875 L 515.394531 616.4375 C 520.472656 621.226562 517.644531 623.28125 518.128906 625.199219 C 564.058594 671.394531 616.945312 712.230469 654.050781 757.121094 C 655.324219 762.632812 665.390625 770.675781 668.773438 776.574219 C 664.3125 780.554688 660.09375 785.539062 656.226562 789.011719 C 644.511719 806.082031 637.566406 817.683594 625 834.515625 C 608.308594 836.015625 606.371094 859.992188 592.550781 865.535156 L 593.253906 871.257812 C 581.984375 873.039062 578.84375 888.816406 565.34375 893.519531 C 564.679688 897.109375 564.039062 898.722656 563.664062 899.355469 C 564.214844 899.078125 565.417969 899.003906 567.65625 900.703125 C 563.777344 902.019531 560.691406 909.070312 556.90625 904.890625 L 557.101562 903.835938 C 553.328125 899.65625 551.648438 913.660156 545.355469 913.359375 L 551.277344 915.773438 L 545.925781 920.128906 L 546.308594 918.003906 C 541.269531 933.457031 532.863281 940.296875 524.746094 947.167969 C 516.574219 953.980469 508.425781 960.550781 503.730469 974.976562 C 501.285156 967.878906 502.664062 981.351562 497.054688 976.875 C 485.636719 976.160156 489.867188 987.882812 487.847656 993.757812 C 488.117188 993.996094 488.375 994.320312 488.574219 994.921875 C 488.574219 994.921875 486.726562 996.640625 484.933594 998.414062 C 483.128906 1000.175781 481.316406 1001.9375 481.316406 1001.9375 C 478.433594 991.4375 482.238281 1012.363281 480.050781 1003.117188 C 468.925781 1010.820312 459.054688 1022.292969 449.207031 1034.453125 C 444.273438 1040.578125 439.253906 1046.796875 434.265625 1052.984375 C 429.207031 1059.265625 423.828125 1065.359375 418.476562 1070.84375 L 421.132812 1071.257812 C 415.925781 1077.039062 411.996094 1086.359375 405.519531 1088.617188 C 398.976562 1090.898438 402.230469 1102.308594 401.121094 1104.308594 C 400.386719 1111.058594 392.371094 1111.378906 392.257812 1110 C 389.3125 1116.042969 391.480469 1125.816406 383.101562 1130.792969 C 375.128906 1128.523438 373.109375 1155.449219 366.164062 1150.164062 L 366.671875 1150.703125 C 360.554688 1153.378906 357.773438 1158.550781 354.914062 1163.773438 C 352.042969 1168.945312 349.117188 1174.292969 342.9375 1177.332031 C 342.9375 1177.332031 342.617188 1176.738281 342.453125 1176.023438 C 342.453125 1176.023438 342.648438 1178.324219 342.949219 1181.777344 C 343.207031 1185.195312 343.539062 1189.757812 343.871094 1194.308594 C 344.492188 1203.480469 344.949219 1212.839844 344.949219 1212.839844 C 344.949219 1212.839844 351.535156 1216.300781 358.117188 1219.753906 C 364.753906 1223.152344 371.386719 1226.550781 371.386719 1226.550781 C 371.386719 1226.550781 379.683594 1226.054688 388.101562 1225.402344 C 392.339844 1225.089844 396.488281 1224.71875 399.597656 1224.4375 C 402.707031 1224.160156 404.792969 1223.960938 404.792969 1223.960938 C 404.792969 1223.960938 407.167969 1220.65625 410.734375 1215.699219 C 414.371094 1210.734375 418.808594 1204.144531 423.390625 1197.542969 C 427.996094 1190.9375 432.347656 1184.378906 435.667969 1179.453125 C 438.972656 1174.53125 441.171875 1171.257812 441.171875 1171.257812 C 441.171875 1171.257812 450.679688 1162.902344 460.1875 1154.546875 C 469.589844 1146.351562 479.003906 1138.160156 479.003906 1138.160156 C 479.003906 1138.160156 483.449219 1132.316406 490.128906 1123.546875 C 493.464844 1119.195312 497.355469 1114.332031 501.523438 1109.003906 C 502.570312 1107.679688 503.636719 1106.332031 504.714844 1104.964844 C 505.855469 1103.5625 507.007812 1102.152344 508.175781 1100.734375 C 510.5 1097.894531 512.863281 1095.011719 515.238281 1092.121094 C 524.691406 1080.574219 534.160156 1069.019531 541.25 1060.351562 C 548.3125 1051.65625 553.171875 1045.976562 553.171875 1045.976562 L 553.972656 1035.289062 C 578.160156 1025.320312 588.246094 993.933594 611.53125 980.773438 L 607.738281 976.617188 C 612.320312 971.113281 614.558594 973.816406 616.476562 973.175781 C 638.300781 948.121094 659.929688 922.097656 681.605469 897.253906 C 692.503906 884.878906 703.597656 872.945312 714.773438 861.628906 C 720.371094 855.980469 726.011719 850.488281 731.703125 845.222656 C 734.378906 842.753906 737.09375 840.351562 739.808594 837.996094 C 742.320312 841.457031 744.714844 844.960938 747.066406 848.03125 L 746.125 847.988281 C 771.742188 872.675781 798.191406 894.476562 824.453125 916.644531 C 837.535156 927.757812 850.464844 939.003906 863.019531 950.839844 C 875.699219 962.582031 888.078125 974.886719 899.886719 988.253906 C 917.988281 1017.378906 955.496094 1033.167969 978.898438 1063.992188 C 979.3125 1066.167969 983.292969 1070.882812 989.460938 1076.46875 C 995.578125 1082.097656 1003.664062 1088.816406 1011.898438 1095.324219 C 1028.382812 1108.351562 1045.488281 1120.5625 1048.921875 1121.742188 L 1046.453125 1110.746094 C 1058.28125 1118.851562 1066.058594 1125.960938 1073.417969 1132.75 C 1080.820312 1139.488281 1088.027344 1145.6875 1099.308594 1151.210938 L 1097.328125 1151.511719 C 1098.230469 1153.242188 1101.453125 1151.4375 1106.84375 1154.09375 C 1109.539062 1155.429688 1112.765625 1157.875 1116.527344 1162.457031 C 1118.414062 1164.738281 1120.425781 1167.566406 1122.582031 1171.050781 C 1124.8125 1174.4375 1127.195312 1178.492188 1129.726562 1183.320312 L 1129.3125 1183.859375 C 1130.480469 1184.597656 1131.300781 1183.507812 1132.390625 1186.605469 L 1129.464844 1179.175781 C 1133.789062 1180.285156 1138.632812 1179.859375 1143.265625 1182.773438 C 1143.730469 1184.066406 1143.203125 1185.414062 1142.632812 1186.359375 L 1154.027344 1193.5 L 1154.660156 1199.488281 C 1159.375 1200.039062 1163.441406 1191.488281 1169.089844 1202.207031 C 1169.640625 1194.554688 1175.726562 1202.359375 1176.597656 1198.921875 C 1176.566406 1199.882812 1176.855469 1201.59375 1177.011719 1203.085938 C 1182.640625 1206.394531 1193.484375 1212.289062 1197.839844 1211.429688 C 1197.839844 1211.429688 1194.761719 1204.871094 1191.546875 1197.125 C 1188.332031 1189.394531 1184.996094 1180.480469 1184.351562 1175.683594 C 1190.542969 1182.535156 1186.726562 1176.492188 1186.601562 1173.683594 L 1185.160156 1174.605469 C 1181.769531 1170.085938 1184.207031 1166.832031 1182.734375 1164.300781 C 1182.539062 1164.570312 1182.363281 1164.933594 1182.175781 1165.296875 L 1182.777344 1165.070312 C 1182.558594 1165.804688 1182.132812 1166.105469 1181.65625 1166.261719 C 1181.191406 1166.996094 1180.578125 1167.390625 1179.550781 1166.3125 L 1180.027344 1166.136719 C 1177.871094 1165.253906 1175.136719 1162.394531 1173.953125 1161.152344 L 1175.976562 1158.414062 C 1168.84375 1161.140625 1160.453125 1134.390625 1156.347656 1131.039062 C 1154.710938 1124.386719 1146.261719 1124.355469 1142.320312 1118.488281 C 1134.648438 1110.933594 1141.222656 1111.246094 1138.859375 1105.59375 C 1134.949219 1099.738281 1137.449219 1109.542969 1135.210938 1108.042969 L 1131.890625 1099.324219 C 1135.78125 1101.925781 1135.085938 1098.734375 1135.242188 1097.179688 C 1130.183594 1092.390625 1125.589844 1080.71875 1119.667969 1084.660156 C 1114.421875 1076.292969 1116.125 1074.179688 1113.21875 1071.421875 C 1113.480469 1073.214844 1114.847656 1075.753906 1113.996094 1076.832031 C 1112.972656 1072.167969 1112.140625 1076.285156 1112.910156 1077.753906 C 1109.757812 1077.113281 1105.933594 1070.085938 1102.210938 1063.867188 C 1098.558594 1057.535156 1095.046875 1051.957031 1092.207031 1054.445312 L 1093.074219 1053.398438 C 1088.515625 1056.796875 1086.710938 1062.324219 1081.691406 1062.09375 L 1081.246094 1058.464844 L 1076.644531 1057.710938 C 1075.742188 1054.589844 1077.699219 1054.308594 1078.136719 1053.792969 C 1071.5 1051.53125 1066.484375 1043.304688 1060.914062 1037.632812 L 1057.585938 1054.601562 C 1054.707031 1047.59375 1050.070312 1034.410156 1045.894531 1037.25 L 1046.121094 1030.792969 C 1042.191406 1014.789062 1036.230469 1027.953125 1034.03125 1022.28125 L 1032.527344 1013.722656 C 1032.527344 1013.722656 1033.761719 1014.863281 1035.027344 1015.949219 C 1036.292969 1017.050781 1037.558594 1018.136719 1037.558594 1018.136719 C 1034.25 1011.730469 1033.484375 1008.519531 1031.824219 1002.289062 C 1031.78125 1002.332031 1031.710938 1002.320312 1031.679688 1002.363281 C 1031.804688 1002.777344 1031.8125 1003.140625 1031.628906 1003.417969 L 1030.839844 1002.902344 C 1028.421875 1004.457031 1024.554688 1003.574219 1021.136719 1000.308594 C 1016.613281 995.304688 1009.988281 994.898438 1005.824219 983.4375 L 1000.078125 985.921875 L 996.285156 978.085938 L 999.257812 974.707031 C 1004.984375 980.109375 1017.226562 988.597656 1024.960938 995.097656 L 1026.445312 993.664062 C 1021.945312 989.71875 1015.515625 986.710938 1012.839844 983.757812 C 1012.074219 982.003906 1011.515625 976.386719 1014.800781 975.308594 L 1010.382812 975.984375 C 995.050781 963.164062 994.792969 963.234375 982.558594 945.65625 L 982.402344 948.546875 C 978.429688 946.777344 974.523438 944.941406 976.109375 941.449219 C 967.316406 932.460938 959.605469 921.628906 957.417969 911.941406 L 952.53125 914.675781 C 950.769531 912.675781 953.226562 904.082031 947.277344 908.714844 L 941.511719 906.644531 C 939.105469 903.90625 935.414062 904.652344 934.429688 899.648438 L 934.429688 899.636719 C 934.429688 899.625 934.421875 899.617188 934.421875 899.617188 C 934.359375 899.304688 934.296875 898.984375 934.265625 898.632812 C 934.160156 898.746094 934.078125 898.871094 934.007812 898.984375 C 929.527344 891.75 930.855469 902.550781 925.972656 893.988281 C 926.304688 889.1875 918.941406 896.734375 916.390625 892.734375 L 918.175781 884.007812 C 915.042969 875.15625 908.832031 879.796875 900 871.640625 C 897.605469 865.722656 899.980469 859.070312 906.699219 857.429688 C 898.101562 858.984375 901.855469 859.140625 894.464844 856.859375 C 895.636719 854.03125 896.589844 854.082031 899.472656 853.242188 C 897.222656 846.570312 894.910156 852.550781 891.601562 849.253906 C 886.9375 852.289062 879.929688 857.523438 878.582031 856.746094 L 878.757812 859.214844 C 873.167969 857.96875 868.285156 855.273438 865.910156 849.378906 L 867.921875 847.53125 L 862.492188 844.382812 L 864.585938 841.574219 L 857.441406 836.421875 L 857.679688 837.914062 C 855.855469 836.855469 850.121094 833.105469 848.546875 829.136719 L 849.964844 827.820312 C 846.140625 815.972656 834.195312 815.589844 824.460938 807.316406 L 828.382812 805.585938 C 827.894531 799.75 823.363281 809.191406 820.925781 804.21875 L 824.046875 800.519531 C 816.363281 802.03125 820.679688 795.5 820.035156 791.59375 L 816.757812 797.222656 L 813.367188 792.195312 C 810.050781 786.203125 815.941406 783.625 818.90625 781.851562 L 812.25 782.460938 L 815.453125 777.789062 C 808.628906 780.316406 813.8125 774.804688 807.273438 773.464844 C 808.382812 771.601562 810.257812 771.703125 809.46875 769.722656 L 807.386719 769.609375 C 808.246094 768.792969 809.109375 767.984375 809.957031 767.175781 L 809.875 768.136719 L 815.578125 760.832031 C 816.179688 760.871094 816.6875 761.308594 816.78125 761.824219 C 820.554688 750.941406 835.523438 742.765625 845.976562 735.210938 L 845.882812 736.171875 C 859.183594 723.226562 871.726562 710.023438 883.980469 696.746094 C 896.257812 683.644531 908.410156 670.65625 920.550781 657.691406 C 932.75 644.777344 945.007812 631.945312 957.996094 619.640625 C 971.144531 607.464844 984.847656 595.679688 999.539062 584.535156 C 1007.316406 580.371094 1014.40625 574.960938 1021.207031 568.875 C 1028.007812 562.800781 1034.445312 555.972656 1041.164062 549.152344 C 1054.527344 535.460938 1068.234375 521.1875 1085.25 510.75 C 1089.820312 510.398438 1105.871094 495.96875 1121.484375 480.960938 C 1137.097656 465.941406 1152.003906 450.175781 1153.726562 446.851562 L 1142.320312 447.980469 C 1152.253906 436.898438 1160.921875 430.308594 1168.996094 423.859375 C 1173.042969 420.636719 1176.929688 417.445312 1180.753906 413.746094 C 1181.6875 412.832031 1182.703125 411.816406 1183.574219 410.90625 C 1184.394531 410.054688 1185.203125 409.175781 1186.011719 408.242188 C 1187.566406 406.375 1189.347656 404.273438 1191.089844 401.917969 L 1191.070312 403.867188 C 1192.832031 403.410156 1191.597656 399.960938 1195.257812 395.359375 C 1196.140625 394.226562 1197.375 393.003906 1199.0625 391.730469 C 1200.753906 390.457031 1202.796875 389.179688 1205.535156 387.824219 C 1210.914062 385.148438 1218.628906 382.421875 1229.949219 379.394531 L 1230.375 379.933594 C 1231.484375 378.886719 1230.621094 377.839844 1234.117188 377.355469 C 1234.117188 377.355469 1231.992188 377.71875 1229.867188 378.089844 C 1227.742188 378.472656 1225.667969 378.765625 1225.667969 378.765625 C 1226.839844 376.753906 1227.730469 374.429688 1228.828125 372.160156 C 1229.929688 369.890625 1231.253906 367.644531 1233.464844 365.496094 C 1234.9375 365.25 1236.179688 366.046875 1236.96875 366.804688 C 1236.96875 366.804688 1237.640625 366.148438 1238.65625 365.164062 C 1239.671875 364.203125 1241.042969 362.832031 1242.402344 361.464844 C 1243.757812 360.105469 1245.128906 358.738281 1246.144531 357.714844 C 1247.167969 356.65625 1247.84375 355.949219 1247.84375 355.949219 L 1254.40625 355.941406 C 1255.402344 353.421875 1253.886719 350.863281 1253.761719 348.230469 C 1253.691406 346.921875 1253.972656 345.617188 1255.070312 344.300781 C 1256.167969 342.964844 1258.097656 341.71875 1261.363281 340.132812 C 1253.265625 339.273438 1263.167969 332.671875 1259.621094 331.625 C 1260.65625 331.699219 1262.574219 331.40625 1264.222656 331.167969 C 1265.425781 329.511719 1266.878906 327.480469 1268.351562 325.28125 C 1269.8125 323.042969 1271.265625 320.472656 1272.558594 318.066406 C 1273.875 315.703125 1274.902344 313.101562 1275.628906 310.96875 C 1276.332031 308.800781 1276.695312 306.976562 1276.550781 305.734375 " fill-opacity="1" fill-rule="nonzero"/></g><path fill="#ff0000" d="M 392.257812 1110 C 392.339844 1109.835938 392.402344 1109.660156 392.496094 1109.503906 C 392.300781 1109.679688 392.246094 1109.84375 392.257812 1110 " fill-opacity="1" fill-rule="nonzero"/><path fill="#ff0000" d="M 1000.015625 466.410156 L 999.996094 465.09375 C 999.921875 465.578125 999.945312 466.015625 1000.015625 466.410156 " fill-opacity="1" fill-rule="nonzero"/><path fill="#ff0000" d="M 1236.96875 366.804688 L 1236.730469 367.03125 C 1238.253906 368.835938 1238.066406 367.828125 1236.96875 366.804688 " fill-opacity="1" fill-rule="nonzero"/><path fill="#ff0000" d="M 1070.246094 425.144531 C 1070.390625 425.042969 1070.535156 424.9375 1070.671875 424.835938 L 1066.980469 423.683594 L 1070.246094 425.144531 " fill-opacity="1" fill-rule="nonzero"/><path fill="#ff0000" d="M 1148.136719 352.570312 C 1143.804688 355.214844 1143.992188 355.835938 1145.152344 356.085938 C 1146.636719 355.027344 1147.734375 353.878906 1148.136719 352.570312 " fill-opacity="1" fill-rule="nonzero"/><path fill="#ff0000" d="M 1261.050781 335.210938 C 1262.597656 334.390625 1264.660156 334.089844 1266.234375 333.105469 C 1268.402344 330.929688 1266.566406 330.890625 1264.222656 331.167969 C 1263.324219 332.445312 1262.523438 333.417969 1261.953125 334.113281 C 1261.382812 334.808594 1261.050781 335.210938 1261.050781 335.210938 " fill-opacity="1" fill-rule="nonzero"/><path fill="#ff0000" d="M 1235.214844 319.230469 L 1234.429688 317.3125 C 1233.703125 318.699219 1234.21875 319.144531 1235.214844 319.230469 " fill-opacity="1" fill-rule="nonzero"/></g></g></g></svg>
