<svg xmlns="http://www.w3.org/2000/svg" xmlns:xlink="http://www.w3.org/1999/xlink" width="2079" zoomAndPan="magnify" viewBox="0 0 1559.25 1559.249931" height="2079" preserveAspectRatio="xMidYMid meet" version="1.0"><defs><clipPath id="5b1caf3e60"><path d="M 41 0 L 1489 0 L 1489 1558.5 L 41 1558.5 Z M 41 0 " clip-rule="nonzero"/></clipPath><clipPath id="b9a98b6f57"><path d="M 210.175781 939 L 1266.550781 939 L 1266.550781 950.660156 L 210.175781 950.660156 Z M 210.175781 939 " clip-rule="nonzero"/></clipPath><clipPath id="3dd219f5de"><path d="M 0.488281 950.535156 L 409.839844 950.535156 L 409.839844 1201 L 0.488281 1201 Z M 0.488281 950.535156 " clip-rule="nonzero"/></clipPath><clipPath id="1bb4eb2bba"><path d="M 256 1207 L 409.839844 1207 L 409.839844 1486 L 256 1486 Z M 256 1207 " clip-rule="nonzero"/></clipPath><clipPath id="2042005208"><path d="M 0.488281 1207 L 154 1207 L 154 1486 L 0.488281 1486 Z M 0.488281 1207 " clip-rule="nonzero"/></clipPath><clipPath id="7fb8d1c6a8"><path d="M 128 1282 L 282 1282 L 282 1558.5 L 128 1558.5 Z M 128 1282 " clip-rule="nonzero"/></clipPath><clipPath id="31efa2de2c"><path d="M 259.773438 950.535156 L 669.125 950.535156 L 669.125 1201 L 259.773438 1201 Z M 259.773438 950.535156 " clip-rule="nonzero"/></clipPath><clipPath id="a9006206ca"><path d="M 515 1207 L 669.125 1207 L 669.125 1486 L 515 1486 Z M 515 1207 " clip-rule="nonzero"/></clipPath><clipPath id="76474620b6"><path d="M 259.773438 1207 L 414 1207 L 414 1486 L 259.773438 1486 Z M 259.773438 1207 " clip-rule="nonzero"/></clipPath><clipPath id="cac703ac28"><path d="M 387 1282 L 542 1282 L 542 1558.5 L 387 1558.5 Z M 387 1282 " clip-rule="nonzero"/></clipPath><clipPath id="7e0698401f"><path d="M 519.058594 950.535156 L 928.410156 950.535156 L 928.410156 1201 L 519.058594 1201 Z M 519.058594 950.535156 " clip-rule="nonzero"/></clipPath><clipPath id="0e4c19050f"><path d="M 775 1207 L 928.410156 1207 L 928.410156 1486 L 775 1486 Z M 775 1207 " clip-rule="nonzero"/></clipPath><clipPath id="35454ee4fb"><path d="M 519.058594 1207 L 673 1207 L 673 1486 L 519.058594 1486 Z M 519.058594 1207 " clip-rule="nonzero"/></clipPath><clipPath id="f75e8a6b46"><path d="M 647 1282 L 801 1282 L 801 1558.5 L 647 1558.5 Z M 647 1282 " clip-rule="nonzero"/></clipPath><clipPath id="b0f58d5d75"><path d="M 778.34375 950.535156 L 1187.695312 950.535156 L 1187.695312 1201 L 778.34375 1201 Z M 778.34375 950.535156 " clip-rule="nonzero"/></clipPath><clipPath id="8caf89568e"><path d="M 1034 1207 L 1187.695312 1207 L 1187.695312 1486 L 1034 1486 Z M 1034 1207 " clip-rule="nonzero"/></clipPath><clipPath id="9bff828d09"><path d="M 778.34375 1207 L 932 1207 L 932 1486 L 778.34375 1486 Z M 778.34375 1207 " clip-rule="nonzero"/></clipPath><clipPath id="bfc904e52e"><path d="M 906 1282 L 1060 1282 L 1060 1558.5 L 906 1558.5 Z M 906 1282 " clip-rule="nonzero"/></clipPath><clipPath id="478afec514"><path d="M 1037.628906 950.535156 L 1446.984375 950.535156 L 1446.984375 1201 L 1037.628906 1201 Z M 1037.628906 950.535156 " clip-rule="nonzero"/></clipPath><clipPath id="c9d79b7bbf"><path d="M 1293 1207 L 1446.984375 1207 L 1446.984375 1486 L 1293 1486 Z M 1293 1207 " clip-rule="nonzero"/></clipPath><clipPath id="d535056fe3"><path d="M 1037.628906 1207 L 1192 1207 L 1192 1486 L 1037.628906 1486 Z M 1037.628906 1207 " clip-rule="nonzero"/></clipPath><clipPath id="0c8e7a6baf"><path d="M 1165 1282 L 1320 1282 L 1320 1558.5 L 1165 1558.5 Z M 1165 1282 " clip-rule="nonzero"/></clipPath><clipPath id="b41252e273"><rect x="0" width="1448" y="0" height="1559"/></clipPath></defs><g clip-path="url(#5b1caf3e60)"><g transform="matrix(1, 0, 0, 1, 41, 0.000000000000078219)"><g clip-path="url(#b41252e273)"><path fill="#000000" d="M 567.425781 259.148438 L 912.324219 259.148438 C 912.324219 589.316406 1034.09375 586.550781 739.875 586.550781 C 445.65625 586.550781 567.425781 589.316406 567.425781 259.148438 Z M 567.425781 259.148438 " fill-opacity="1" fill-rule="evenodd"/><path fill="#000000" d="M 754.167969 588.28125 L 732.601562 588.28125 C 616.582031 588.234375 568.472656 588.300781 549.953125 566.707031 C 535.773438 550.175781 540.042969 522.449219 547.800781 472.101562 C 555.351562 423.089844 565.691406 355.960938 565.691406 259.148438 L 565.691406 257.421875 L 914.054688 257.421875 L 914.054688 259.148438 C 914.054688 355.902344 924.371094 423.019531 931.902344 472.019531 C 939.648438 522.410156 943.914062 550.164062 929.722656 566.707031 C 911.570312 587.851562 865.113281 588.28125 754.167969 588.28125 Z M 739.875 584.824219 L 747.144531 584.824219 C 858.570312 584.761719 909.601562 584.835938 927.097656 564.453125 C 940.253906 549.117188 936.074219 521.921875 928.484375 472.550781 C 920.976562 423.726562 910.714844 356.964844 910.59375 260.878906 L 569.148438 260.878906 C 569.027344 357.03125 558.742188 423.792969 551.21875 472.628906 C 543.617188 521.960938 539.433594 549.128906 552.578125 564.453125 C 570.070312 584.835938 621.109375 584.933594 732.597656 584.824219 Z M 739.875 584.824219 " fill-opacity="1" fill-rule="nonzero"/><path fill="#6295ca" d="M 684.871094 475.6875 L 550.300781 509.414062 C 497.199219 528.4375 486.644531 620.105469 477.652344 697.417969 L 1001.921875 697.417969 C 992.925781 620.109375 982.375 528.441406 929.273438 509.414062 L 794.703125 475.6875 Z M 684.871094 475.6875 " fill-opacity="1" fill-rule="evenodd"/><path fill="#000000" d="M 1001.921875 702 L 477.652344 702 C 476.34375 702 475.101562 701.4375 474.230469 700.46875 C 473.359375 699.492188 472.949219 698.1875 473.101562 696.886719 C 482.5 616.078125 493.085938 525.042969 548.753906 505.101562 L 683.753906 471.242188 C 684.117188 471.152344 684.496094 471.105469 684.871094 471.105469 L 794.703125 471.105469 C 795.078125 471.105469 795.453125 471.152344 795.816406 471.242188 L 930.386719 504.96875 C 986.480469 525.042969 997.066406 616.058594 1006.410156 696.367188 C 1006.5625 697.664062 1006.183594 699.226562 1005.3125 700.203125 C 1004.4375 701.179688 1003.226562 701.996094 1001.917969 701.996094 Z M 482.800781 692.832031 L 996.773438 692.832031 C 988.210938 619.460938 976.882812 531.339844 927.726562 513.730469 L 794.140625 480.265625 L 685.4375 480.265625 L 551.414062 513.859375 C 502.574219 531.386719 491.3125 619.847656 482.804688 692.832031 Z M 482.800781 692.832031 " fill-opacity="1" fill-rule="nonzero"/><path fill="#fba187" d="M 702.511719 392.496094 L 777.058594 392.496094 C 777.058594 425.359375 783.632812 453.546875 794.703125 475.6875 C 794.703125 484.855469 761.320312 486.757812 739.875 486.757812 C 718.425781 486.757812 684.871094 484.855469 684.871094 475.6875 C 695.941406 453.550781 702.511719 425.359375 702.511719 392.496094 Z M 702.511719 392.496094 " fill-opacity="1" fill-rule="evenodd"/><path fill="#000000" d="M 739.875 491.335938 C 680.289062 491.335938 680.289062 479.96875 680.289062 475.683594 C 680.289062 474.976562 680.453125 474.273438 680.769531 473.636719 C 691.996094 451.191406 697.929688 423.132812 697.929688 392.5 C 697.929688 389.964844 699.976562 387.917969 702.511719 387.917969 L 777.058594 387.917969 C 779.59375 387.917969 781.640625 389.964844 781.640625 392.5 C 781.640625 423.132812 787.578125 451.1875 798.800781 473.636719 C 799.121094 474.273438 799.285156 474.976562 799.285156 475.683594 C 799.285156 479.96875 799.285156 491.335938 739.875 491.335938 Z M 689.796875 476.046875 C 692.585938 478.375 707.847656 482.175781 739.875 482.175781 C 771.238281 482.175781 786.46875 478.515625 789.6875 475.871094 C 778.976562 453.640625 773.074219 426.53125 772.515625 397.082031 L 707.046875 397.082031 C 706.496094 426.605469 700.558594 453.78125 689.796875 476.046875 Z M 689.796875 476.046875 " fill-opacity="1" fill-rule="nonzero"/><path fill="#000000" d="M 573.304688 702 C 570.773438 702 568.722656 699.949219 568.722656 697.417969 C 568.722656 686.9375 568.796875 677.089844 568.867188 667.75 C 569.355469 604.417969 569.648438 566.195312 546.085938 511.222656 C 545.089844 508.898438 546.167969 506.199219 548.492188 505.203125 C 550.820312 504.210938 553.511719 505.289062 554.511719 507.613281 C 578.828125 564.339844 578.507812 605.507812 578.035156 667.820312 C 577.960938 677.140625 577.886719 686.960938 577.886719 697.417969 C 577.886719 699.949219 575.835938 702 573.304688 702 Z M 573.304688 702 " fill-opacity="1" fill-rule="nonzero"/><path fill="#000000" d="M 908 702 C 905.46875 702 903.417969 699.949219 903.417969 697.417969 C 903.417969 686.960938 903.339844 677.140625 903.269531 667.820312 C 902.792969 605.507812 902.472656 564.339844 926.792969 507.613281 C 927.796875 505.289062 930.492188 504.214844 932.8125 505.203125 C 935.136719 506.199219 936.21875 508.898438 935.21875 511.222656 C 911.65625 566.195312 911.949219 604.417969 912.4375 667.75 C 912.507812 677.089844 912.582031 686.9375 912.582031 697.417969 C 912.582031 699.949219 910.53125 702 908 702 Z M 908 702 " fill-opacity="1" fill-rule="nonzero"/><path fill="#000000" d="M 690.921875 461.679688 L 781.382812 436.425781 C 780.519531 432.277344 779.828125 428.128906 779.136719 423.800781 C 766.683594 427.78125 753.363281 429.855469 739.875 429.855469 C 726.207031 429.855469 712.890625 427.78125 700.4375 423.800781 C 698.363281 437.640625 695.25 450.265625 690.921875 461.679688 Z M 690.921875 461.679688 " fill-opacity="1" fill-rule="evenodd"/><path fill="#fba187" d="M 739.875 88.097656 C 824.28125 88.097656 892.777344 163.332031 892.777344 256.382812 C 892.777344 349.433594 824.28125 429.855469 739.875 429.855469 C 655.464844 429.855469 586.796875 349.261719 586.796875 256.382812 C 586.796875 163.503906 655.292969 88.097656 739.875 88.097656 Z M 739.875 88.097656 " fill-opacity="1" fill-rule="evenodd"/><path fill="#000000" d="M 739.875 434.433594 C 654.410156 434.433594 582.210938 352.898438 582.210938 256.386719 C 582.210938 161.066406 652.9375 83.519531 739.875 83.519531 C 826.808594 83.519531 897.359375 161.066406 897.359375 256.386719 C 897.359375 352.902344 825.242188 434.433594 739.875 434.433594 Z M 739.875 92.683594 C 657.992188 92.683594 591.375 166.117188 591.375 256.382812 C 591.375 347.929688 659.378906 425.269531 739.875 425.269531 C 820.367188 425.269531 888.195312 347.929688 888.195312 256.382812 C 888.195312 166.117188 821.65625 92.683594 739.875 92.683594 Z M 739.875 92.683594 " fill-opacity="1" fill-rule="nonzero"/><path fill="#000000" d="M 660.132812 230.613281 C 658.402344 228.191406 670.859375 216.082031 685.90625 213.835938 C 694.207031 212.625 702.511719 213.664062 710.984375 217.121094 C 713.234375 217.988281 714.269531 220.582031 713.40625 222.828125 C 712.539062 225.25 709.773438 226.289062 707.527344 225.25 C 700.78125 222.484375 694.035156 221.789062 687.113281 222.828125 C 669.125 225.597656 661.167969 232.339844 660.128906 230.613281 Z M 660.132812 230.613281 " fill-opacity="1" fill-rule="nonzero"/><path fill="#000000" d="M 739.875 318.726562 C 721.613281 318.726562 713.292969 310.0625 713.292969 302.015625 C 713.292969 297.335938 716.085938 293 720.949219 290.109375 C 724.660156 287.902344 729.558594 286.527344 735.292969 286.050781 L 735.292969 254.652344 C 735.292969 252.121094 737.339844 250.070312 739.875 250.070312 C 742.40625 250.070312 744.457031 252.121094 744.457031 254.652344 L 744.457031 290.457031 C 744.457031 292.988281 742.40625 295.039062 739.875 295.039062 C 732.207031 295.039062 727.898438 296.644531 725.632812 297.984375 C 723.617188 299.183594 722.460938 300.65625 722.460938 302.015625 C 722.460938 305.058594 727.996094 309.5625 739.875 309.5625 C 742.40625 309.5625 744.457031 311.613281 744.457031 314.144531 C 744.457031 316.679688 742.40625 318.726562 739.875 318.726562 Z M 739.875 318.726562 " fill-opacity="1" fill-rule="nonzero"/><path fill="#fb9188" d="M 656.503906 340.957031 C 673.28125 340.957031 686.773438 331.964844 686.773438 320.894531 C 686.773438 309.996094 673.28125 301.003906 656.503906 301.003906 C 639.726562 301.003906 626.058594 309.996094 626.058594 320.894531 C 626.058594 331.964844 639.726562 340.957031 656.503906 340.957031 Z M 656.503906 340.957031 " fill-opacity="1" fill-rule="evenodd"/><path fill="#fb9188" d="M 819.613281 340.957031 C 836.390625 340.957031 850.054688 331.964844 850.054688 320.894531 C 850.054688 309.996094 836.390625 301.003906 819.613281 301.003906 C 803.007812 301.003906 789.34375 309.996094 789.34375 320.894531 C 789.34375 331.964844 803.007812 340.957031 819.613281 340.957031 Z M 819.613281 340.957031 " fill-opacity="1" fill-rule="evenodd"/><path fill="#000000" d="M 665.152344 265.15625 C 664.285156 262.042969 675.703125 250.28125 687.808594 250.796875 C 698.363281 251.144531 710.46875 262.214844 708.222656 267.574219 C 706.835938 270.34375 702.511719 262.386719 687.636719 261.695312 C 673.105469 261.175781 665.84375 267.574219 665.152344 265.15625 Z M 665.152344 265.15625 " fill-opacity="1" fill-rule="nonzero"/><path fill="#000000" d="M 814.421875 265.15625 C 815.289062 262.042969 803.871094 250.28125 791.761719 250.796875 C 781.210938 251.144531 769.105469 262.214844 771.351562 267.574219 C 772.738281 270.34375 777.058594 262.386719 791.9375 261.695312 C 806.46875 261.175781 813.730469 267.574219 814.421875 265.15625 Z M 814.421875 265.15625 " fill-opacity="1" fill-rule="nonzero"/><path fill="#000000" d="M 708.914062 61.636719 C 583.683594 28.082031 552.894531 159.527344 570.882812 246.523438 C 577.109375 276.097656 587.316406 296.855469 599.078125 320.894531 L 599.421875 266.066406 C 711.160156 266.066406 655.464844 154.511719 703.375 154.511719 C 776.542969 154.511719 649.410156 248.078125 876.691406 258.285156 L 883.089844 315.703125 L 910.246094 256.554688 C 941.898438 138.078125 815.980469 -0.113281 708.910156 61.632812 Z M 708.914062 61.636719 " fill-opacity="1" fill-rule="evenodd"/><path fill="#000000" d="M 599.078125 322.625 C 598.425781 322.625 597.816406 322.261719 597.519531 321.660156 L 597.285156 321.171875 C 585.554688 297.179688 575.421875 276.472656 569.191406 246.882812 C 558.136719 193.429688 565.007812 118.199219 606.203125 79.324219 C 631.808594 55.164062 666.285156 48.585938 708.671875 59.78125 C 751.453125 35.433594 800.910156 40.601562 844.472656 74.023438 C 901.320312 117.628906 929.054688 192.871094 911.921875 257.003906 L 884.664062 316.429688 C 884.339844 317.132812 883.609375 317.539062 882.816406 317.417969 C 882.050781 317.292969 881.457031 316.671875 881.371094 315.898438 L 875.136719 259.949219 C 729.996094 253.15625 729.238281 212.597656 728.675781 182.949219 C 728.371094 166.867188 728.171875 156.242188 703.375 156.242188 C 685.898438 156.242188 683.332031 172.625 680.082031 193.359375 C 675.203125 224.515625 668.539062 267.085938 601.140625 267.792969 L 600.804688 320.914062 C 600.800781 321.71875 600.242188 322.410156 599.460938 322.589844 C 599.332031 322.617188 599.203125 322.628906 599.074219 322.628906 Z M 671.011719 57.964844 C 646.332031 57.964844 625.429688 65.933594 608.578125 81.839844 C 568.34375 119.804688 561.714844 193.640625 572.578125 246.175781 C 578.183594 272.800781 587.046875 292.234375 597.394531 313.511719 L 597.695312 266.058594 C 597.699219 265.113281 598.476562 264.34375 599.425781 264.34375 C 665.46875 264.34375 671.683594 224.6875 676.671875 192.824219 C 680.035156 171.34375 682.941406 152.789062 703.378906 152.789062 C 731.570312 152.789062 731.835938 166.738281 732.140625 182.886719 C 732.675781 211.265625 733.410156 250.128906 876.773438 256.5625 C 877.625 256.601562 878.320312 257.257812 878.414062 258.101562 L 884.125 309.328125 L 908.679688 255.84375 C 925.367188 193.296875 898.136719 119.550781 842.371094 76.769531 C 799.761719 44.101562 751.4375 39.132812 709.777344 63.136719 C 709.382812 63.367188 708.902344 63.4375 708.464844 63.308594 C 695.164062 59.746094 682.667969 57.972656 671.015625 57.972656 Z M 671.011719 57.964844 " fill-opacity="1" fill-rule="nonzero"/><path fill="#fba187" d="M 893.988281 244.101562 C 908.863281 239.949219 920.972656 251.019531 920.972656 268.660156 C 920.972656 286.472656 908.867188 304.113281 893.988281 308.4375 C 879.113281 312.589844 867.179688 301.519531 867.179688 283.878906 C 867.179688 266.0625 879.113281 248.25 893.988281 244.097656 Z M 893.988281 244.101562 " fill-opacity="1" fill-rule="evenodd"/><path fill="#000000" d="M 888.300781 313.667969 C 886.832031 313.667969 885.40625 313.542969 884.027344 313.304688 C 881.535156 312.863281 879.867188 310.488281 880.308594 307.988281 C 880.75 305.5 883.148438 303.894531 885.621094 304.269531 C 887.828125 304.660156 890.292969 304.5625 892.769531 303.976562 C 905.5 300.273438 916.046875 284.398438 916.046875 268.65625 C 916.046875 260.8125 913.339844 254.261719 908.621094 250.679688 C 904.871094 247.832031 900.171875 247.074219 895.050781 248.515625 C 890.734375 249.796875 886.226562 253.902344 881.339844 261.039062 C 879.90625 263.136719 877.058594 263.667969 874.96875 262.238281 C 872.878906 260.808594 872.347656 257.953125 873.773438 255.867188 C 879.984375 246.796875 885.9375 241.65625 892.511719 239.710938 C 900.464844 237.480469 908.132812 238.789062 914.164062 243.378906 C 921.183594 248.707031 925.210938 257.917969 925.210938 268.65625 C 925.210938 288.519531 911.984375 307.925781 895.097656 312.84375 C 892.761719 313.390625 890.488281 313.667969 888.300781 313.667969 Z M 888.300781 313.667969 " fill-opacity="1" fill-rule="nonzero"/><path fill="#000000" d="M 884.996094 286.992188 C 885.339844 286.472656 885.339844 285.78125 885.339844 285.09375 L 885.167969 284.054688 C 884.648438 280.769531 884.648438 277.480469 884.996094 274.714844 C 885.515625 271.949219 886.378906 269.355469 887.589844 267.105469 C 891.914062 259.664062 898.488281 258.109375 901.601562 257.246094 C 903.5 256.898438 904.539062 256.554688 904.195312 254.996094 C 904.195312 254.652344 903.847656 254.304688 903.675781 254.132812 C 902.808594 253.441406 901.425781 253.09375 899.523438 253.441406 C 897.964844 253.613281 895.890625 254.304688 893.816406 255.167969 C 890.183594 256.894531 886.203125 260.011719 883.4375 264.507812 C 881.878906 267.273438 880.667969 270.386719 880.324219 273.671875 C 879.632812 277.132812 879.804688 280.9375 880.324219 284.917969 C 880.324219 285.089844 880.496094 285.78125 880.496094 286.128906 C 880.667969 286.820312 881.015625 287.339844 881.535156 287.6875 C 882.054688 288.03125 882.574219 288.207031 883.261719 288.03125 L 883.4375 288.03125 C 883.957031 287.859375 884.648438 287.511719 884.996094 286.992188 Z M 884.996094 286.992188 " fill-opacity="1" fill-rule="nonzero"/><path fill="#fba187" d="M 578.664062 244.101562 C 563.792969 239.949219 551.855469 251.019531 551.855469 268.660156 C 551.855469 286.472656 563.789062 304.113281 578.664062 308.4375 C 593.539062 312.589844 605.476562 301.519531 605.476562 283.878906 C 605.476562 266.0625 593.542969 248.25 578.664062 244.097656 Z M 578.664062 244.101562 " fill-opacity="1" fill-rule="evenodd"/><path fill="#000000" d="M 584.375 286.992188 C 584.03125 286.472656 583.855469 285.78125 584.03125 285.09375 L 584.203125 284.054688 C 584.546875 280.769531 584.722656 277.480469 584.203125 274.714844 C 583.855469 271.949219 582.992188 269.355469 581.609375 267.105469 C 577.285156 259.664062 570.710938 258.109375 567.769531 257.246094 C 565.867188 256.898438 564.65625 256.554688 565.003906 254.996094 C 565.175781 254.652344 565.347656 254.304688 565.695312 254.132812 C 566.386719 253.441406 567.945312 253.09375 569.847656 253.441406 C 571.402344 253.613281 573.308594 254.304688 575.382812 255.167969 C 579.1875 256.894531 583.167969 260.011719 585.761719 264.507812 C 587.488281 267.273438 588.527344 270.386719 589.046875 273.671875 C 589.566406 277.132812 589.566406 280.9375 589.046875 284.917969 C 588.875 285.089844 588.875 285.78125 588.875 286.128906 C 588.699219 286.820312 588.355469 287.339844 587.835938 287.6875 C 587.316406 288.03125 586.625 288.207031 585.933594 288.03125 C 585.242188 287.859375 584.722656 287.511719 584.378906 286.992188 Z M 584.375 286.992188 " fill-opacity="1" fill-rule="nonzero"/><path fill="#000000" d="M 584.09375 313.6875 C 581.847656 313.6875 579.617188 313.425781 577.523438 312.882812 C 560.503906 307.9375 547.277344 288.527344 547.277344 268.660156 C 547.277344 257.921875 551.300781 248.710938 558.324219 243.378906 C 564.351562 238.796875 572.015625 237.484375 579.902344 239.691406 C 588.371094 242.011719 596.085938 249.945312 603.476562 263.929688 C 604.660156 266.164062 603.804688 268.941406 601.566406 270.117188 C 599.328125 271.3125 596.554688 270.445312 595.375 268.207031 C 587.828125 253.929688 581.46875 249.625 577.460938 248.527344 C 572.300781 247.089844 567.617188 247.832031 563.871094 250.683594 C 559.152344 254.265625 556.445312 260.820312 556.445312 268.660156 C 556.445312 284.402344 566.988281 300.277344 579.953125 304.042969 C 583.722656 305.015625 588.515625 304.539062 592.015625 302.789062 C 594.277344 301.664062 597.03125 302.566406 598.167969 304.835938 C 599.300781 307.097656 598.386719 309.855469 596.121094 310.984375 C 592.570312 312.761719 588.308594 313.691406 584.097656 313.691406 Z M 584.09375 313.6875 " fill-opacity="1" fill-rule="nonzero"/><path fill="#6295ca" d="M 716.003906 519.097656 C 658.574219 519.269531 660.480469 459.082031 692.476562 459.082031 C 702.855469 469.460938 724.128906 483.8125 739.875 485.023438 C 755.441406 483.8125 775.160156 471.015625 787.09375 459.082031 C 819.09375 459.082031 820.996094 519.269531 763.570312 519.097656 L 739.875 485.023438 Z M 716.003906 519.097656 " fill-opacity="1" fill-rule="evenodd"/><path fill="#000000" d="M 763.820312 523.679688 C 762.3125 523.671875 760.714844 523.015625 759.808594 521.714844 L 739.859375 493.035156 L 719.753906 521.726562 C 718.851562 523.015625 717.332031 523.691406 715.75 523.679688 C 687.445312 523.679688 675.320312 510.078125 670.605469 501.953125 C 664.3125 491.101562 663.980469 477.597656 669.765625 467.558594 C 674.542969 459.257812 682.824219 454.503906 692.476562 454.503906 C 693.691406 454.503906 694.859375 454.984375 695.71875 455.84375 C 704.902344 465.03125 725.199219 479.105469 739.875 480.425781 C 753.875 479.164062 772.539062 467.148438 783.851562 455.84375 C 784.710938 454.984375 785.878906 454.503906 787.09375 454.503906 C 796.746094 454.503906 805.027344 459.261719 809.808594 467.558594 C 815.59375 477.597656 815.261719 491.101562 808.964844 501.953125 C 804.25 510.078125 792.125 523.679688 763.820312 523.679688 Z M 716.003906 519.097656 L 716.0625 519.097656 Z M 690.703125 463.75 C 685.125 464.253906 680.550781 467.1875 677.703125 472.132812 C 673.527344 479.382812 673.851562 489.28125 678.535156 497.355469 C 684.695312 507.972656 697.109375 514.011719 713.636719 514.488281 L 731.992188 488.289062 C 716.460938 484.21875 699.652344 472.210938 690.699219 463.753906 Z M 747.734375 488.304688 L 765.945312 514.484375 C 782.464844 514.007812 794.875 507.972656 801.035156 497.355469 C 805.714844 489.28125 806.042969 479.382812 801.867188 472.132812 C 799.019531 467.191406 794.453125 464.261719 788.878906 463.746094 C 778.359375 473.8125 762.355469 484.546875 747.738281 488.300781 Z M 747.734375 488.304688 " fill-opacity="1" fill-rule="nonzero"/><path fill="#000000" d="M 739.359375 353.859375 C 726.429688 353.859375 713.648438 350.945312 701.101562 345.117188 C 698.800781 344.050781 697.808594 341.324219 698.875 339.027344 C 699.941406 336.738281 702.667969 335.75 704.960938 336.800781 C 727.847656 347.441406 750.65625 347.421875 774.6875 336.769531 C 777.007812 335.738281 779.710938 336.785156 780.734375 339.097656 C 781.761719 341.410156 780.71875 344.121094 778.40625 345.144531 C 765.308594 350.953125 752.265625 353.855469 739.363281 353.855469 Z M 739.359375 353.859375 " fill-opacity="1" fill-rule="nonzero"/><path fill="#000000" d="M 739.785156 365.601562 C 736.410156 365.601562 733.035156 365.214844 729.6875 364.449219 C 727.214844 363.882812 725.675781 361.429688 726.234375 358.960938 C 726.800781 356.488281 729.246094 354.945312 731.726562 355.511719 C 737.074219 356.738281 742.5 356.738281 747.851562 355.511719 C 750.328125 354.945312 752.777344 356.488281 753.339844 358.960938 C 753.902344 361.429688 752.359375 363.882812 749.890625 364.449219 C 746.539062 365.214844 743.164062 365.601562 739.789062 365.601562 Z M 739.785156 365.601562 " fill-opacity="1" fill-rule="nonzero"/><path fill="#000000" d="M 735.292969 486.753906 L 744.457031 486.753906 L 744.457031 697.417969 L 735.292969 697.417969 Z M 735.292969 486.753906 " fill-opacity="1" fill-rule="nonzero"/><path fill="#ffffff" d="M 583.164062 307.574219 C 586.796875 307.574219 589.738281 304.636719 589.738281 301.003906 C 589.738281 297.371094 586.796875 294.429688 583.164062 294.429688 C 579.53125 294.429688 576.589844 297.371094 576.589844 301.003906 C 576.589844 304.636719 579.53125 307.574219 583.164062 307.574219 Z M 583.164062 307.574219 " fill-opacity="1" fill-rule="evenodd"/><path fill="#000000" d="M 583.164062 309.820312 C 578.296875 309.820312 574.339844 305.863281 574.339844 301 C 574.339844 296.136719 578.296875 292.179688 583.164062 292.179688 C 588.03125 292.179688 591.988281 296.136719 591.988281 301 C 591.988281 305.863281 588.03125 309.820312 583.164062 309.820312 Z M 583.164062 296.675781 C 580.777344 296.675781 578.839844 298.621094 578.839844 301 C 578.839844 303.382812 580.78125 305.324219 583.164062 305.324219 C 585.546875 305.324219 587.484375 303.382812 587.484375 301 C 587.484375 298.621094 585.546875 296.675781 583.164062 296.675781 Z M 583.164062 296.675781 " fill-opacity="1" fill-rule="nonzero"/><path fill="#ffffff" d="M 895.199219 307.574219 C 898.832031 307.574219 901.773438 304.636719 901.773438 301.003906 C 901.773438 297.371094 898.832031 294.429688 895.199219 294.429688 C 891.566406 294.429688 888.628906 297.371094 888.628906 301.003906 C 888.628906 304.636719 891.566406 307.574219 895.199219 307.574219 Z M 895.199219 307.574219 " fill-opacity="1" fill-rule="evenodd"/><path fill="#000000" d="M 895.199219 309.820312 C 890.332031 309.820312 886.378906 305.863281 886.378906 301 C 886.378906 296.136719 890.332031 292.179688 895.199219 292.179688 C 900.066406 292.179688 904.023438 296.136719 904.023438 301 C 904.023438 305.863281 900.066406 309.820312 895.199219 309.820312 Z M 895.199219 296.675781 C 892.816406 296.675781 890.878906 298.621094 890.878906 301 C 890.878906 303.382812 892.820312 305.324219 895.199219 305.324219 C 897.582031 305.324219 899.523438 303.382812 899.523438 301 C 899.523438 298.621094 897.582031 296.675781 895.199219 296.675781 Z M 895.199219 296.675781 " fill-opacity="1" fill-rule="nonzero"/><path fill="#248e50" d="M 302.398438 767.933594 C 315.726562 781.257812 320.246094 800.035156 315.984375 817.050781 C 315.332031 817.230469 314.679688 817.367188 314.011719 817.488281 C 297.542969 820.964844 279.675781 816.285156 266.859375 803.472656 C 253.535156 790.144531 249.011719 771.371094 253.277344 754.351562 C 270.296875 750.089844 289.074219 754.609375 302.398438 767.9375 Z M 302.398438 767.933594 " fill-opacity="1" fill-rule="nonzero"/><path fill="#91edba" d="M 302.398438 767.933594 C 315.726562 781.257812 320.246094 800.035156 315.984375 817.050781 C 315.332031 817.230469 314.679688 817.367188 314.011719 817.488281 C 294.402344 799.070312 253.277344 754.351562 253.277344 754.351562 C 270.296875 750.089844 289.074219 754.609375 302.398438 767.9375 Z M 302.398438 767.933594 " fill-opacity="1" fill-rule="nonzero"/><path fill="#000000" d="M 303.265625 824.210938 C 288.332031 824.210938 273.800781 818.304688 262.914062 807.417969 C 248.765625 793.269531 242.996094 772.410156 247.859375 752.992188 C 248.363281 750.996094 249.921875 749.4375 251.917969 748.933594 C 271.34375 744.078125 292.195312 749.835938 306.347656 763.984375 C 320.496094 778.136719 326.265625 798.992188 321.402344 818.410156 C 320.90625 820.367188 319.394531 821.910156 317.445312 822.4375 C 316.636719 822.660156 315.828125 822.835938 314.992188 822.980469 C 311.09375 823.804688 307.164062 824.207031 303.265625 824.207031 Z M 257.980469 759.054688 C 255.386719 773.855469 260.054688 788.769531 270.808594 799.523438 C 281.484375 810.191406 296.503906 814.917969 311.28125 812.328125 C 313.871094 797.535156 309.199219 782.628906 298.453125 771.882812 C 287.695312 761.125 272.773438 756.46875 257.980469 759.054688 Z M 257.980469 759.054688 " fill-opacity="1" fill-rule="nonzero"/><path fill="#248e50" d="M 383.375 803.460938 C 396.699219 790.136719 401.222656 771.359375 396.957031 754.34375 C 396.308594 754.164062 395.652344 754.027344 394.984375 753.90625 C 378.519531 750.429688 360.648438 755.109375 347.835938 767.921875 C 334.507812 781.25 329.988281 800.023438 334.25 817.042969 C 351.269531 821.304688 370.046875 816.785156 383.375 803.457031 Z M 383.375 803.460938 " fill-opacity="1" fill-rule="nonzero"/><path fill="#91edba" d="M 383.375 803.460938 C 396.699219 790.136719 401.222656 771.359375 396.957031 754.34375 C 396.308594 754.164062 395.652344 754.027344 394.984375 753.90625 C 375.375 772.324219 334.25 817.042969 334.25 817.042969 C 351.269531 821.304688 370.046875 816.785156 383.375 803.457031 Z M 383.375 803.460938 " fill-opacity="1" fill-rule="nonzero"/><path fill="#000000" d="M 346.699219 824.15625 C 342.089844 824.15625 337.453125 823.601562 332.894531 822.464844 C 330.898438 821.960938 329.339844 820.402344 328.835938 818.402344 C 323.972656 798.984375 329.738281 778.125 343.890625 763.980469 C 357.625 750.246094 377.152344 744.441406 396.140625 748.449219 C 396.789062 748.558594 397.605469 748.734375 398.421875 748.960938 C 400.371094 749.488281 401.886719 751.03125 402.378906 752.988281 C 407.242188 772.410156 401.476562 793.265625 387.324219 807.410156 C 376.492188 818.242188 361.734375 824.160156 346.699219 824.160156 Z M 338.957031 812.34375 C 353.773438 814.9375 368.675781 810.265625 379.425781 799.511719 C 390.175781 788.761719 394.839844 773.863281 392.253906 759.074219 C 377.378906 756.515625 362.417969 761.242188 351.78125 771.875 C 341.03125 782.628906 336.363281 797.539062 338.957031 812.34375 Z M 338.957031 812.34375 " fill-opacity="1" fill-rule="nonzero"/><path fill="#248e50" d="M 351.644531 780.117188 C 351.644531 798.964844 341.5625 815.4375 326.511719 824.453125 C 325.925781 824.117188 325.367188 823.757812 324.808594 823.363281 C 310.710938 814.179688 301.382812 798.238281 301.382812 780.117188 C 301.382812 761.273438 311.464844 744.800781 326.511719 735.78125 C 341.5625 744.800781 351.644531 761.273438 351.644531 780.117188 Z M 351.644531 780.117188 " fill-opacity="1" fill-rule="nonzero"/><path fill="#91edba" d="M 351.644531 780.117188 C 351.644531 798.964844 341.5625 815.4375 326.511719 824.453125 C 325.925781 824.117188 325.367188 823.757812 324.808594 823.363281 C 323.972656 796.476562 326.511719 735.78125 326.511719 735.78125 C 341.5625 744.800781 351.644531 761.273438 351.644531 780.117188 Z M 351.644531 780.117188 " fill-opacity="1" fill-rule="nonzero"/><path fill="#000000" d="M 326.511719 830.039062 C 325.554688 830.039062 324.597656 829.792969 323.742188 829.300781 C 323.007812 828.882812 322.3125 828.429688 321.613281 827.945312 C 305.503906 817.453125 295.800781 799.539062 295.800781 780.117188 C 295.800781 760.105469 306.46875 741.28125 323.644531 730.992188 C 325.410156 729.933594 327.617188 729.933594 329.386719 730.992188 C 346.558594 741.28125 357.230469 760.105469 357.230469 780.117188 C 357.230469 800.128906 346.5625 818.953125 329.386719 829.246094 C 328.503906 829.773438 327.511719 830.039062 326.515625 830.039062 Z M 326.511719 742.433594 C 314.214844 751.066406 306.96875 764.914062 306.96875 780.117188 C 306.96875 795.210938 314.25 809.171875 326.53125 817.789062 C 338.820312 809.160156 346.058594 795.316406 346.058594 780.117188 C 346.058594 764.917969 338.8125 751.066406 326.511719 742.433594 Z M 326.511719 742.433594 " fill-opacity="1" fill-rule="nonzero"/><path fill="#f2f1ef" d="M 390.695312 823.160156 L 380.652344 929.953125 C 379.980469 936.964844 372.839844 942.394531 364.191406 942.449219 L 287.367188 942.988281 C 283.609375 943.007812 280.097656 942.023438 277.285156 940.3125 C 273.492188 938.003906 270.925781 934.433594 270.609375 930.324219 L 262.109375 823.046875 C 261.71875 818.097656 265.625 813.878906 270.574219 813.878906 L 382.234375 813.878906 C 387.238281 813.878906 391.160156 818.175781 390.699219 823.160156 Z M 390.695312 823.160156 " fill-opacity="1" fill-rule="nonzero"/><path fill="#000000" d="M 390.695312 823.160156 L 380.652344 929.953125 C 379.980469 936.964844 372.839844 942.394531 364.191406 942.449219 L 287.367188 942.988281 C 283.609375 943.007812 280.097656 942.023438 277.285156 940.3125 C 324.542969 911.097656 358.039062 851.035156 375.035156 813.878906 L 382.230469 813.878906 C 387.234375 813.878906 391.160156 818.175781 390.695312 823.160156 Z M 390.695312 823.160156 " fill-opacity="0.15" fill-rule="nonzero"/><path fill="#cfd1d0" d="M 1049.691406 651.878906 L 1049.691406 943.445312 L 429.824219 943.445312 L 429.824219 651.878906 C 429.824219 617.230469 459.144531 588.691406 496.835938 584.953125 C 499.601562 584.679688 502.421875 584.53125 505.269531 584.53125 L 974.246094 584.53125 C 1015.90625 584.53125 1049.691406 614.6875 1049.691406 651.878906 Z M 1049.691406 651.878906 " fill-opacity="1" fill-rule="nonzero"/><path fill="#000000" d="M 662.078125 943.445312 L 429.824219 943.445312 L 429.824219 651.878906 C 429.824219 614.6875 463.609375 584.53125 505.269531 584.53125 L 647.617188 584.53125 C 636.074219 596.527344 549.105469 689.992188 577.8125 811.34375 C 594.292969 881.035156 640.765625 925.4375 662.078125 943.445312 Z M 662.078125 943.445312 " fill-opacity="0.05" fill-rule="nonzero"/><path fill="#000000" d="M 770.472656 768.949219 C 770.472656 769.910156 770.425781 770.867188 770.332031 771.824219 C 770.238281 772.777344 770.097656 773.726562 769.910156 774.667969 C 769.722656 775.609375 769.488281 776.539062 769.210938 777.460938 C 768.933594 778.378906 768.609375 779.28125 768.242188 780.167969 C 767.875 781.054688 767.464844 781.921875 767.011719 782.769531 C 766.558594 783.617188 766.066406 784.4375 765.53125 785.238281 C 765 786.035156 764.425781 786.804688 763.816406 787.546875 C 763.207031 788.289062 762.566406 789 761.886719 789.679688 C 761.207031 790.359375 760.496094 791 759.753906 791.609375 C 759.011719 792.21875 758.242188 792.792969 757.441406 793.324219 C 756.644531 793.859375 755.820312 794.351562 754.976562 794.804688 C 754.128906 795.257812 753.261719 795.667969 752.375 796.035156 C 751.488281 796.402344 750.585938 796.722656 749.664062 797.003906 C 748.746094 797.28125 747.816406 797.515625 746.875 797.703125 C 745.933594 797.890625 744.984375 798.03125 744.027344 798.125 C 743.074219 798.21875 742.113281 798.265625 741.15625 798.265625 C 740.195312 798.265625 739.238281 798.21875 738.28125 798.125 C 737.324219 798.03125 736.375 797.890625 735.433594 797.703125 C 734.492188 797.515625 733.5625 797.28125 732.644531 797.003906 C 731.726562 796.722656 730.824219 796.402344 729.933594 796.035156 C 729.046875 795.667969 728.179688 795.257812 727.335938 794.804688 C 726.488281 794.351562 725.664062 793.859375 724.867188 793.324219 C 724.066406 792.792969 723.296875 792.21875 722.554688 791.609375 C 721.8125 791 721.101562 790.359375 720.421875 789.679688 C 719.746094 789 719.101562 788.289062 718.492188 787.546875 C 717.882812 786.804688 717.3125 786.035156 716.777344 785.238281 C 716.246094 784.4375 715.75 783.617188 715.296875 782.769531 C 714.847656 781.921875 714.4375 781.054688 714.066406 780.167969 C 713.699219 779.28125 713.378906 778.378906 713.097656 777.460938 C 712.820312 776.539062 712.585938 775.609375 712.398438 774.667969 C 712.210938 773.726562 712.070312 772.777344 711.976562 771.824219 C 711.882812 770.867188 711.835938 769.910156 711.835938 768.949219 C 711.835938 767.988281 711.882812 767.03125 711.976562 766.078125 C 712.070312 765.121094 712.210938 764.171875 712.398438 763.230469 C 712.585938 762.289062 712.820312 761.359375 713.097656 760.441406 C 713.378906 759.519531 713.699219 758.617188 714.066406 757.730469 C 714.4375 756.84375 714.847656 755.976562 715.296875 755.128906 C 715.75 754.285156 716.246094 753.460938 716.777344 752.664062 C 717.3125 751.863281 717.882812 751.09375 718.492188 750.351562 C 719.101562 749.609375 719.746094 748.898438 720.421875 748.21875 C 721.101562 747.542969 721.8125 746.898438 722.554688 746.289062 C 723.296875 745.679688 724.066406 745.109375 724.867188 744.574219 C 725.664062 744.042969 726.488281 743.546875 727.335938 743.09375 C 728.179688 742.644531 729.046875 742.234375 729.933594 741.867188 C 730.824219 741.5 731.726562 741.175781 732.644531 740.898438 C 733.5625 740.617188 734.492188 740.386719 735.433594 740.199219 C 736.375 740.011719 737.324219 739.871094 738.28125 739.773438 C 739.238281 739.679688 740.195312 739.632812 741.15625 739.632812 C 742.113281 739.632812 743.074219 739.679688 744.027344 739.777344 C 744.984375 739.871094 745.933594 740.011719 746.875 740.199219 C 747.816406 740.386719 748.746094 740.617188 749.664062 740.898438 C 750.585938 741.175781 751.488281 741.5 752.375 741.867188 C 753.261719 742.234375 754.128906 742.644531 754.976562 743.09375 C 755.820312 743.546875 756.644531 744.042969 757.441406 744.574219 C 758.242188 745.109375 759.011719 745.679688 759.753906 746.289062 C 760.496094 746.898438 761.207031 747.542969 761.886719 748.21875 C 762.566406 748.898438 763.207031 749.609375 763.816406 750.351562 C 764.425781 751.09375 765 751.863281 765.53125 752.664062 C 766.066406 753.460938 766.558594 754.285156 767.011719 755.128906 C 767.464844 755.976562 767.875 756.84375 768.242188 757.730469 C 768.609375 758.617188 768.933594 759.519531 769.210938 760.441406 C 769.488281 761.359375 769.722656 762.289062 769.910156 763.230469 C 770.097656 764.171875 770.238281 765.121094 770.332031 766.078125 C 770.425781 767.03125 770.472656 767.988281 770.472656 768.949219 Z M 770.472656 768.949219 " fill-opacity="1" fill-rule="nonzero"/><path fill="#000000" d="M 519.175781 586.078125 C 503.023438 618.660156 475.464844 685.269531 477.292969 773.136719 C 478.929688 851.78125 503.367188 911.578125 519.175781 943.445312 L 429.824219 943.445312 L 429.824219 651.878906 C 430.332031 644.878906 432.769531 624.136719 449.195312 606.828125 C 476.246094 578.316406 516.199219 585.488281 519.175781 586.078125 Z M 519.175781 586.078125 " fill-opacity="0.15" fill-rule="nonzero"/><g clip-path="url(#b9a98b6f57)"><path fill="#000000" d="M 1260.503906 950.425781 L 216.222656 950.425781 C 213.140625 950.425781 210.636719 947.925781 210.636719 944.84375 C 210.636719 941.761719 213.140625 939.257812 216.222656 939.257812 L 1260.503906 939.257812 C 1263.585938 939.257812 1266.089844 941.761719 1266.089844 944.84375 C 1266.089844 947.925781 1263.585938 950.425781 1260.503906 950.425781 Z M 1260.503906 950.425781 " fill-opacity="1" fill-rule="nonzero"/></g><path fill="#000000" d="M 1048.296875 947.78125 L 431.222656 947.78125 C 428.136719 947.78125 425.636719 945.28125 425.636719 942.199219 L 425.636719 654.386719 C 425.636719 612.101562 460.042969 577.699219 502.332031 577.699219 L 977.183594 577.699219 C 1019.476562 577.699219 1053.882812 612.101562 1053.882812 654.386719 L 1053.882812 942.199219 C 1053.882812 945.28125 1051.378906 947.78125 1048.296875 947.78125 Z M 436.804688 936.613281 L 1042.710938 936.613281 L 1042.710938 654.386719 C 1042.710938 618.257812 1013.320312 588.867188 977.183594 588.867188 L 502.332031 588.867188 C 466.203125 588.867188 436.804688 618.257812 436.804688 654.386719 Z M 436.804688 936.613281 " fill-opacity="1" fill-rule="nonzero"/><path fill="#000000" d="M 287.214844 948.570312 C 275.554688 948.570312 265.832031 940.78125 265.039062 930.769531 L 256.546875 823.480469 C 256.238281 819.578125 257.585938 815.691406 260.242188 812.820312 C 262.898438 809.945312 266.667969 808.296875 270.578125 808.296875 L 382.242188 808.296875 C 386.195312 808.296875 389.988281 809.976562 392.652344 812.894531 C 395.316406 815.816406 396.628906 819.753906 396.257812 823.6875 L 386.207031 930.476562 C 385.273438 940.402344 375.824219 947.949219 364.234375 948.03125 L 287.402344 948.566406 L 287.21875 948.566406 Z M 364.191406 942.449219 L 364.21875 942.449219 Z M 270.578125 819.460938 C 269.472656 819.460938 268.769531 820.046875 268.445312 820.398438 C 268.121094 820.746094 267.59375 821.496094 267.683594 822.601562 L 276.175781 929.882812 C 276.503906 934.042969 281.445312 937.398438 287.21875 937.398438 L 287.320312 937.398438 L 364.152344 936.863281 C 369.800781 936.820312 374.707031 933.488281 375.089844 929.429688 L 385.136719 822.640625 C 385.242188 821.53125 384.714844 820.765625 384.394531 820.410156 C 384.070312 820.054688 383.363281 819.460938 382.242188 819.460938 Z M 270.578125 819.460938 " fill-opacity="1" fill-rule="nonzero"/><path fill="#000000" d="M 1221.953125 900.140625 C 1217.878906 900.140625 1213.933594 899.351562 1210.238281 897.789062 C 1208.105469 896.886719 1207.109375 894.429688 1208.007812 892.300781 C 1208.910156 890.167969 1211.359375 889.175781 1213.496094 890.070312 C 1216.15625 891.191406 1219.003906 891.761719 1221.953125 891.761719 C 1233.972656 891.761719 1243.75 881.988281 1243.75 869.972656 C 1243.75 857.953125 1233.972656 848.175781 1221.953125 848.175781 C 1219.070312 848.175781 1216.292969 848.722656 1213.703125 849.792969 C 1211.566406 850.679688 1209.113281 849.664062 1208.230469 847.527344 C 1207.347656 845.386719 1208.359375 842.9375 1210.5 842.054688 C 1214.109375 840.558594 1217.964844 839.796875 1221.957031 839.796875 C 1238.59375 839.796875 1252.128906 853.332031 1252.128906 869.96875 C 1252.128906 886.601562 1238.59375 900.136719 1221.957031 900.136719 Z M 1221.953125 900.140625 " fill-opacity="1" fill-rule="nonzero"/><path fill="#f2f1ef" d="M 1215.949219 833.910156 L 1215.949219 879.804688 C 1215.949219 914.324219 1187.972656 942.296875 1153.449219 942.296875 C 1152.285156 942.296875 1151.132812 942.269531 1149.984375 942.199219 C 1145.234375 941.945312 1140.628906 941.144531 1136.234375 939.894531 C 1110.082031 932.425781 1090.953125 908.355469 1090.953125 879.804688 L 1090.953125 833.910156 C 1090.953125 824.738281 1098.382812 817.3125 1107.550781 817.3125 L 1199.347656 817.3125 C 1208.519531 817.3125 1215.949219 824.742188 1215.949219 833.910156 Z M 1215.949219 833.910156 " fill-opacity="1" fill-rule="nonzero"/><path fill="#f65859" d="M 1206.132812 833.910156 L 1206.132812 879.804688 C 1206.132812 913.128906 1180.050781 940.359375 1147.1875 942.199219 C 1142.441406 941.945312 1137.835938 941.144531 1133.4375 939.894531 C 1107.289062 932.425781 1088.15625 908.355469 1088.15625 879.804688 L 1088.15625 833.910156 C 1088.15625 824.738281 1095.589844 817.3125 1104.757812 817.3125 L 1189.53125 817.3125 C 1198.703125 817.3125 1206.132812 824.742188 1206.132812 833.910156 Z M 1206.132812 833.910156 " fill-opacity="1" fill-rule="nonzero"/><path fill="#000000" d="M 1153.449219 946.488281 C 1116.675781 946.488281 1086.761719 916.574219 1086.761719 879.804688 L 1086.761719 833.910156 C 1086.761719 822.449219 1096.089844 813.125 1107.550781 813.125 L 1199.347656 813.125 C 1210.808594 813.125 1220.132812 822.449219 1220.132812 833.910156 L 1220.132812 879.804688 C 1220.132812 916.574219 1190.21875 946.488281 1153.449219 946.488281 Z M 1107.550781 821.496094 C 1100.710938 821.496094 1095.140625 827.0625 1095.140625 833.90625 L 1095.140625 879.800781 C 1095.140625 911.953125 1121.296875 938.109375 1153.453125 938.109375 C 1185.609375 938.109375 1211.761719 911.953125 1211.761719 879.800781 L 1211.761719 833.90625 C 1211.761719 827.0625 1206.195312 821.496094 1199.355469 821.496094 Z M 1107.550781 821.496094 " fill-opacity="1" fill-rule="nonzero"/><path fill="#000000" d="M 1136.230469 939.894531 C 1110.078125 932.425781 1090.949219 908.355469 1090.949219 879.804688 L 1090.949219 833.910156 C 1090.949219 824.738281 1098.378906 817.3125 1107.550781 817.3125 L 1121.804688 817.3125 C 1117.824219 829.304688 1112.789062 849.640625 1114.824219 874.890625 C 1117.324219 905.878906 1129.203125 928.53125 1136.230469 939.898438 Z M 1136.230469 939.894531 " fill-opacity="0.15" fill-rule="nonzero"/><path fill="#000000" d="M 1125.363281 802.875 C 1123.050781 802.875 1121.171875 801 1121.171875 798.6875 C 1121.171875 791.214844 1126.175781 787.363281 1129.828125 784.550781 C 1133.371094 781.824219 1135.21875 780.25 1135.21875 777.050781 C 1135.21875 773.851562 1133.371094 772.28125 1129.828125 769.554688 C 1126.175781 766.738281 1121.171875 762.886719 1121.171875 755.417969 C 1121.171875 747.953125 1126.175781 744.105469 1129.828125 741.292969 C 1133.371094 738.566406 1135.21875 736.996094 1135.21875 733.800781 C 1135.21875 731.488281 1137.097656 729.609375 1139.410156 729.609375 C 1141.722656 729.609375 1143.597656 731.488281 1143.597656 733.800781 C 1143.597656 741.265625 1138.59375 745.117188 1134.9375 747.929688 C 1131.398438 750.65625 1129.550781 752.226562 1129.550781 755.421875 C 1129.550781 758.613281 1131.398438 760.191406 1134.941406 762.917969 C 1138.59375 765.734375 1143.597656 769.585938 1143.597656 777.050781 C 1143.597656 784.519531 1138.597656 788.375 1134.941406 791.183594 C 1131.398438 793.914062 1129.550781 795.484375 1129.550781 798.6875 C 1129.550781 801 1127.671875 802.875 1125.363281 802.875 Z M 1125.363281 802.875 " fill-opacity="1" fill-rule="nonzero"/><path fill="#000000" d="M 1149.238281 802.875 C 1146.925781 802.875 1145.050781 801 1145.050781 798.6875 C 1145.050781 791.214844 1150.050781 787.363281 1153.703125 784.550781 C 1157.246094 781.824219 1159.09375 780.25 1159.09375 777.050781 C 1159.09375 773.851562 1157.246094 772.28125 1153.703125 769.554688 C 1150.050781 766.738281 1145.050781 762.886719 1145.050781 755.417969 C 1145.050781 747.953125 1150.050781 744.105469 1153.703125 741.292969 C 1157.246094 738.566406 1159.09375 736.996094 1159.09375 733.800781 C 1159.09375 731.488281 1160.96875 729.609375 1163.28125 729.609375 C 1165.59375 729.609375 1167.46875 731.488281 1167.46875 733.800781 C 1167.46875 741.265625 1162.46875 745.117188 1158.816406 747.929688 C 1155.269531 750.65625 1153.425781 752.226562 1153.425781 755.421875 C 1153.425781 758.613281 1155.273438 760.191406 1158.816406 762.917969 C 1162.46875 765.734375 1167.46875 769.585938 1167.46875 777.050781 C 1167.46875 784.519531 1162.46875 788.375 1158.816406 791.183594 C 1155.273438 793.914062 1153.425781 795.484375 1153.425781 798.6875 C 1153.425781 801 1151.550781 802.875 1149.238281 802.875 Z M 1149.238281 802.875 " fill-opacity="1" fill-rule="nonzero"/><path fill="#000000" d="M 1173.113281 802.875 C 1170.800781 802.875 1168.925781 801 1168.925781 798.6875 C 1168.925781 791.214844 1173.929688 787.363281 1177.582031 784.550781 C 1181.125 781.824219 1182.972656 780.25 1182.972656 777.050781 C 1182.972656 773.851562 1181.125 772.28125 1177.582031 769.554688 C 1173.929688 766.738281 1168.925781 762.886719 1168.925781 755.417969 C 1168.925781 747.953125 1173.929688 744.105469 1177.582031 741.292969 C 1181.125 738.566406 1182.972656 736.996094 1182.972656 733.800781 C 1182.972656 731.488281 1184.847656 729.609375 1187.160156 729.609375 C 1189.472656 729.609375 1191.347656 731.488281 1191.347656 733.800781 C 1191.347656 741.265625 1186.347656 745.117188 1182.691406 747.929688 C 1179.148438 750.65625 1177.300781 752.226562 1177.300781 755.421875 C 1177.300781 758.613281 1179.148438 760.191406 1182.695312 762.917969 C 1186.347656 765.734375 1191.347656 769.585938 1191.347656 777.050781 C 1191.347656 784.519531 1186.347656 788.375 1182.695312 791.183594 C 1179.148438 793.914062 1177.300781 795.484375 1177.300781 798.6875 C 1177.300781 801 1175.425781 802.875 1173.113281 802.875 Z M 1173.113281 802.875 " fill-opacity="1" fill-rule="nonzero"/><g clip-path="url(#3dd219f5de)"><path fill="#000000" d="M 367.914062 985.324219 C 367.914062 1004.480469 352.328125 1020.054688 333.1875 1020.054688 C 314.015625 1020.054688 298.429688 1004.480469 298.429688 985.324219 C 298.429688 966.183594 314.015625 950.609375 333.1875 950.609375 C 352.328125 950.609375 367.914062 966.183594 367.914062 985.324219 Z M 378.214844 1036.539062 L 284.367188 1036.539062 C 272.085938 1036.539062 261.121094 1043.707031 255.933594 1054.753906 C 256.136719 1056.640625 256.5 1058.464844 256.5 1060.398438 C 256.5 1073.832031 251.183594 1085.980469 242.691406 1095.113281 L 250.300781 1095.113281 C 262.414062 1095.113281 273.375 1099.78125 281.835938 1107.199219 L 281.835938 1067.910156 C 281.835938 1063.367188 285.53125 1059.671875 290.078125 1059.671875 C 294.636719 1059.671875 298.335938 1063.367188 298.335938 1067.910156 L 298.335938 1119.265625 C 307.488281 1110.734375 319.691406 1105.390625 333.1875 1105.390625 C 346.648438 1105.390625 358.824219 1110.71875 367.976562 1119.234375 L 367.976562 1067.910156 C 367.976562 1063.367188 371.671875 1059.671875 376.234375 1059.671875 C 380.777344 1059.671875 384.472656 1063.367188 384.472656 1067.910156 L 384.472656 1182.445312 C 398.976562 1178.75 409.78125 1165.707031 409.78125 1150.085938 L 409.78125 1068.082031 C 409.78125 1050.683594 395.625 1036.539062 378.214844 1036.539062 Z M 250.300781 1111.597656 L 160.230469 1111.597656 C 142.820312 1111.597656 128.664062 1125.757812 128.664062 1143.140625 L 128.664062 1191.511719 C 137.929688 1192 146.625 1195.078125 153.921875 1200.25 L 153.921875 1142.980469 C 153.921875 1138.425781 157.601562 1134.730469 162.164062 1134.730469 C 166.726562 1134.730469 170.40625 1138.425781 170.40625 1142.980469 L 170.40625 1194.339844 C 179.574219 1185.789062 191.761719 1180.449219 205.257812 1180.449219 C 218.738281 1180.449219 230.925781 1185.773438 240.078125 1194.308594 L 240.078125 1142.980469 C 240.078125 1138.425781 243.757812 1134.730469 248.320312 1134.730469 C 252.882812 1134.730469 256.5625 1138.425781 256.5625 1142.980469 L 256.5625 1200.25 C 263.859375 1195.078125 272.574219 1192 281.835938 1191.511719 L 281.835938 1142.824219 C 281.664062 1125.585938 267.601562 1111.597656 250.300781 1111.597656 Z M 205.257812 1025.664062 C 186.085938 1025.664062 170.5 1041.238281 170.5 1060.398438 C 170.5 1079.539062 186.085938 1095.113281 205.257812 1095.113281 C 224.429688 1095.113281 240.015625 1079.539062 240.015625 1060.398438 C 240.015625 1041.238281 224.429688 1025.664062 205.257812 1025.664062 Z M 154.015625 1060.398438 C 154.015625 1058.464844 154.378906 1056.640625 154.582031 1054.785156 C 149.394531 1043.707031 138.429688 1036.539062 126.117188 1036.539062 L 32.285156 1036.539062 C 14.875 1036.539062 0.703125 1050.683594 0.703125 1068.082031 L 0.703125 1150.085938 C 0.703125 1165.707031 11.507812 1178.75 26.011719 1182.445312 L 26.011719 1067.910156 C 26.011719 1063.367188 29.707031 1059.671875 34.25 1059.671875 C 38.8125 1059.671875 42.507812 1063.367188 42.507812 1067.910156 L 42.507812 1119.25 C 51.660156 1110.71875 63.835938 1105.390625 77.3125 1105.390625 C 90.808594 1105.390625 103.011719 1110.734375 112.164062 1119.265625 L 112.164062 1067.910156 C 112.164062 1063.367188 115.863281 1059.671875 120.421875 1059.671875 C 124.96875 1059.671875 128.664062 1063.367188 128.664062 1067.910156 L 128.664062 1107.230469 C 137.125 1099.78125 148.105469 1095.113281 160.230469 1095.113281 L 167.824219 1095.113281 C 159.332031 1085.980469 154.015625 1073.832031 154.015625 1060.398438 Z M 77.3125 950.609375 C 58.15625 950.609375 42.570312 966.183594 42.570312 985.324219 C 42.570312 1004.480469 58.15625 1020.054688 77.3125 1020.054688 C 96.484375 1020.054688 112.070312 1004.480469 112.070312 985.324219 C 112.070312 966.183594 96.484375 950.609375 77.3125 950.609375 Z M 77.3125 950.609375 " fill-opacity="1" fill-rule="nonzero"/></g><path fill="#000000" d="M 77.3125 1191.324219 C 96.484375 1191.324219 112.070312 1175.75 112.070312 1156.589844 C 112.070312 1137.449219 96.484375 1121.859375 77.3125 1121.859375 C 58.15625 1121.859375 42.570312 1137.449219 42.570312 1156.589844 C 42.570312 1175.75 58.15625 1191.324219 77.3125 1191.324219 Z M 77.3125 1191.324219 " fill-opacity="1" fill-rule="nonzero"/><path fill="#000000" d="M 333.1875 1191.324219 C 352.328125 1191.324219 367.914062 1175.75 367.914062 1156.589844 C 367.914062 1137.449219 352.328125 1121.859375 333.1875 1121.859375 C 314.015625 1121.859375 298.429688 1137.449219 298.429688 1156.589844 C 298.429688 1175.75 314.015625 1191.324219 333.1875 1191.324219 Z M 333.1875 1191.324219 " fill-opacity="1" fill-rule="nonzero"/><path fill="#000000" d="M 205.257812 1266.378906 C 224.429688 1266.378906 240.015625 1250.804688 240.015625 1231.648438 C 240.015625 1212.507812 224.429688 1196.933594 205.257812 1196.933594 C 186.085938 1196.933594 170.5 1212.507812 170.5 1231.648438 C 170.5 1250.804688 186.085938 1266.378906 205.257812 1266.378906 Z M 205.257812 1266.378906 " fill-opacity="1" fill-rule="nonzero"/><g clip-path="url(#1bb4eb2bba)"><path fill="#000000" d="M 378.214844 1207.792969 L 284.367188 1207.792969 C 272.492188 1207.792969 261.957031 1214.566406 256.5625 1224.984375 L 256.5625 1266.882812 C 256.5625 1266.929688 256.546875 1266.976562 256.546875 1267.007812 C 266.1875 1268.28125 274.867188 1272.351562 281.835938 1278.464844 L 281.835938 1239.175781 C 281.835938 1234.617188 285.53125 1230.941406 290.078125 1230.941406 C 294.636719 1230.941406 298.335938 1234.617188 298.335938 1239.175781 L 298.335938 1314.09375 C 298.335938 1314.1875 298.367188 1314.296875 298.367188 1314.40625 L 298.367188 1396.410156 C 298.367188 1396.535156 298.335938 1396.644531 298.335938 1396.773438 L 298.335938 1485.246094 L 324.929688 1485.246094 L 324.929688 1370.226562 C 324.929688 1365.671875 328.625 1361.992188 333.1875 1361.992188 C 337.730469 1361.992188 341.429688 1365.671875 341.429688 1370.226562 L 341.429688 1485.246094 L 367.992188 1485.246094 L 367.992188 1363.171875 C 367.992188 1363.15625 367.976562 1363.125 367.976562 1363.09375 L 367.976562 1239.175781 C 367.976562 1234.617188 371.671875 1230.941406 376.234375 1230.941406 C 380.777344 1230.941406 384.472656 1234.617188 384.472656 1239.175781 L 384.472656 1353.710938 C 398.976562 1350.019531 409.78125 1336.972656 409.78125 1321.351562 L 409.78125 1239.332031 C 409.78125 1221.953125 395.625 1207.792969 378.214844 1207.792969 Z M 378.214844 1207.792969 " fill-opacity="1" fill-rule="nonzero"/></g><g clip-path="url(#2042005208)"><path fill="#000000" d="M 153.9375 1267.023438 C 153.9375 1266.976562 153.921875 1266.929688 153.921875 1266.882812 L 153.921875 1224.953125 C 148.511719 1214.550781 137.992188 1207.792969 126.117188 1207.792969 L 32.285156 1207.792969 C 14.875 1207.792969 0.703125 1221.953125 0.703125 1239.332031 L 0.703125 1321.351562 C 0.703125 1336.972656 11.507812 1350.019531 26.011719 1353.710938 L 26.011719 1239.175781 C 26.011719 1234.617188 29.707031 1230.941406 34.25 1230.941406 C 38.8125 1230.941406 42.507812 1234.617188 42.507812 1239.175781 L 42.507812 1363.09375 C 42.507812 1363.125 42.492188 1363.15625 42.492188 1363.171875 L 42.492188 1485.246094 L 69.070312 1485.246094 L 69.070312 1370.226562 C 69.070312 1365.671875 72.769531 1361.992188 77.3125 1361.992188 C 81.875 1361.992188 85.570312 1365.671875 85.570312 1370.226562 L 85.570312 1485.246094 L 112.164062 1485.246094 L 112.164062 1239.175781 C 112.164062 1234.617188 115.863281 1230.941406 120.421875 1230.941406 C 124.96875 1230.941406 128.664062 1234.617188 128.664062 1239.175781 L 128.664062 1278.480469 C 135.632812 1272.367188 144.3125 1268.296875 153.9375 1267.023438 Z M 153.9375 1267.023438 " fill-opacity="1" fill-rule="nonzero"/></g><g clip-path="url(#7fb8d1c6a8)"><path fill="#000000" d="M 281.835938 1363.09375 L 281.835938 1314.09375 C 281.664062 1296.851562 267.601562 1282.867188 250.300781 1282.867188 L 160.230469 1282.867188 C 142.820312 1282.867188 128.664062 1297.007812 128.664062 1314.40625 L 128.664062 1396.410156 C 128.664062 1412.015625 139.4375 1425.042969 153.921875 1428.753906 L 153.921875 1314.25 C 153.921875 1309.691406 157.601562 1306 162.164062 1306 C 166.726562 1306 170.40625 1309.691406 170.40625 1314.25 L 170.40625 1437.992188 C 170.40625 1438.054688 170.4375 1438.105469 170.4375 1438.152344 L 170.4375 1558.652344 L 197.015625 1558.652344 L 197.015625 1438.152344 C 197.015625 1433.59375 200.695312 1429.914062 205.257812 1429.914062 C 209.820312 1429.914062 213.5 1433.59375 213.5 1438.152344 L 213.5 1558.652344 L 240.09375 1558.652344 L 240.09375 1438.230469 C 240.09375 1438.214844 240.078125 1438.183594 240.078125 1438.152344 L 240.078125 1314.25 C 240.078125 1309.691406 243.757812 1306 248.320312 1306 C 252.882812 1306 256.5625 1309.691406 256.5625 1314.25 L 256.5625 1428.769531 C 270.96875 1425.105469 281.695312 1412.203125 281.835938 1396.726562 L 281.835938 1370.226562 C 281.835938 1370.164062 281.867188 1370.117188 281.867188 1370.070312 L 281.867188 1363.265625 C 281.867188 1363.203125 281.835938 1363.15625 281.835938 1363.09375 Z M 281.835938 1363.09375 " fill-opacity="1" fill-rule="nonzero"/></g><g clip-path="url(#31efa2de2c)"><path fill="#000000" d="M 627.199219 985.324219 C 627.199219 1004.480469 611.613281 1020.054688 592.472656 1020.054688 C 573.300781 1020.054688 557.714844 1004.480469 557.714844 985.324219 C 557.714844 966.183594 573.300781 950.609375 592.472656 950.609375 C 611.613281 950.609375 627.199219 966.183594 627.199219 985.324219 Z M 637.5 1036.539062 L 543.652344 1036.539062 C 531.371094 1036.539062 520.40625 1043.707031 515.21875 1054.753906 C 515.421875 1056.640625 515.785156 1058.464844 515.785156 1060.398438 C 515.785156 1073.832031 510.46875 1085.980469 501.976562 1095.113281 L 509.585938 1095.113281 C 521.699219 1095.113281 532.660156 1099.78125 541.121094 1107.199219 L 541.121094 1067.910156 C 541.121094 1063.367188 544.816406 1059.671875 549.363281 1059.671875 C 553.921875 1059.671875 557.621094 1063.367188 557.621094 1067.910156 L 557.621094 1119.265625 C 566.773438 1110.734375 578.976562 1105.390625 592.472656 1105.390625 C 605.933594 1105.390625 618.109375 1110.71875 627.261719 1119.234375 L 627.261719 1067.910156 C 627.261719 1063.367188 630.957031 1059.671875 635.519531 1059.671875 C 640.0625 1059.671875 643.761719 1063.367188 643.761719 1067.910156 L 643.761719 1182.445312 C 658.261719 1178.75 669.066406 1165.707031 669.066406 1150.085938 L 669.066406 1068.082031 C 669.066406 1050.683594 654.910156 1036.539062 637.5 1036.539062 Z M 509.585938 1111.597656 L 419.515625 1111.597656 C 402.105469 1111.597656 387.949219 1125.757812 387.949219 1143.140625 L 387.949219 1191.511719 C 397.214844 1192 405.910156 1195.078125 413.207031 1200.25 L 413.207031 1142.980469 C 413.207031 1138.425781 416.886719 1134.730469 421.449219 1134.730469 C 426.011719 1134.730469 429.691406 1138.425781 429.691406 1142.980469 L 429.691406 1194.339844 C 438.859375 1185.789062 451.050781 1180.449219 464.542969 1180.449219 C 478.023438 1180.449219 490.210938 1185.773438 499.363281 1194.308594 L 499.363281 1142.980469 C 499.363281 1138.425781 503.042969 1134.730469 507.605469 1134.730469 C 512.167969 1134.730469 515.847656 1138.425781 515.847656 1142.980469 L 515.847656 1200.25 C 523.144531 1195.078125 531.859375 1192 541.121094 1191.511719 L 541.121094 1142.824219 C 540.949219 1125.585938 526.886719 1111.597656 509.585938 1111.597656 Z M 464.542969 1025.664062 C 445.371094 1025.664062 429.785156 1041.238281 429.785156 1060.398438 C 429.785156 1079.539062 445.371094 1095.113281 464.542969 1095.113281 C 483.714844 1095.113281 499.300781 1079.539062 499.300781 1060.398438 C 499.300781 1041.238281 483.714844 1025.664062 464.542969 1025.664062 Z M 413.300781 1060.398438 C 413.300781 1058.464844 413.664062 1056.640625 413.867188 1054.785156 C 408.679688 1043.707031 397.714844 1036.539062 385.402344 1036.539062 L 291.570312 1036.539062 C 274.160156 1036.539062 259.988281 1050.683594 259.988281 1068.082031 L 259.988281 1150.085938 C 259.988281 1165.707031 270.792969 1178.75 285.296875 1182.445312 L 285.296875 1067.910156 C 285.296875 1063.367188 288.992188 1059.671875 293.535156 1059.671875 C 298.097656 1059.671875 301.792969 1063.367188 301.792969 1067.910156 L 301.792969 1119.25 C 310.945312 1110.71875 323.121094 1105.390625 336.597656 1105.390625 C 350.09375 1105.390625 362.296875 1110.734375 371.453125 1119.265625 L 371.453125 1067.910156 C 371.453125 1063.367188 375.148438 1059.671875 379.707031 1059.671875 C 384.253906 1059.671875 387.949219 1063.367188 387.949219 1067.910156 L 387.949219 1107.230469 C 396.410156 1099.78125 407.390625 1095.113281 419.515625 1095.113281 L 427.113281 1095.113281 C 418.617188 1085.980469 413.300781 1073.832031 413.300781 1060.398438 Z M 336.597656 950.609375 C 317.441406 950.609375 301.855469 966.183594 301.855469 985.324219 C 301.855469 1004.480469 317.441406 1020.054688 336.597656 1020.054688 C 355.769531 1020.054688 371.355469 1004.480469 371.355469 985.324219 C 371.355469 966.183594 355.769531 950.609375 336.597656 950.609375 Z M 336.597656 950.609375 " fill-opacity="1" fill-rule="nonzero"/></g><path fill="#000000" d="M 336.597656 1191.324219 C 355.769531 1191.324219 371.355469 1175.75 371.355469 1156.589844 C 371.355469 1137.449219 355.769531 1121.859375 336.597656 1121.859375 C 317.441406 1121.859375 301.855469 1137.449219 301.855469 1156.589844 C 301.855469 1175.75 317.441406 1191.324219 336.597656 1191.324219 Z M 336.597656 1191.324219 " fill-opacity="1" fill-rule="nonzero"/><path fill="#000000" d="M 592.472656 1191.324219 C 611.613281 1191.324219 627.199219 1175.75 627.199219 1156.589844 C 627.199219 1137.449219 611.613281 1121.859375 592.472656 1121.859375 C 573.300781 1121.859375 557.714844 1137.449219 557.714844 1156.589844 C 557.714844 1175.75 573.300781 1191.324219 592.472656 1191.324219 Z M 592.472656 1191.324219 " fill-opacity="1" fill-rule="nonzero"/><path fill="#000000" d="M 464.542969 1266.378906 C 483.714844 1266.378906 499.300781 1250.804688 499.300781 1231.648438 C 499.300781 1212.507812 483.714844 1196.933594 464.542969 1196.933594 C 445.371094 1196.933594 429.785156 1212.507812 429.785156 1231.648438 C 429.785156 1250.804688 445.371094 1266.378906 464.542969 1266.378906 Z M 464.542969 1266.378906 " fill-opacity="1" fill-rule="nonzero"/><g clip-path="url(#a9006206ca)"><path fill="#000000" d="M 637.5 1207.792969 L 543.652344 1207.792969 C 531.777344 1207.792969 521.242188 1214.566406 515.847656 1224.984375 L 515.847656 1266.882812 C 515.847656 1266.929688 515.832031 1266.976562 515.832031 1267.007812 C 525.472656 1268.28125 534.152344 1272.351562 541.121094 1278.464844 L 541.121094 1239.175781 C 541.121094 1234.617188 544.816406 1230.941406 549.363281 1230.941406 C 553.921875 1230.941406 557.621094 1234.617188 557.621094 1239.175781 L 557.621094 1314.09375 C 557.621094 1314.1875 557.652344 1314.296875 557.652344 1314.40625 L 557.652344 1396.410156 C 557.652344 1396.535156 557.621094 1396.644531 557.621094 1396.773438 L 557.621094 1485.246094 L 584.214844 1485.246094 L 584.214844 1370.226562 C 584.214844 1365.671875 587.910156 1361.992188 592.472656 1361.992188 C 597.015625 1361.992188 600.714844 1365.671875 600.714844 1370.226562 L 600.714844 1485.246094 L 627.277344 1485.246094 L 627.277344 1363.171875 C 627.277344 1363.15625 627.261719 1363.125 627.261719 1363.09375 L 627.261719 1239.175781 C 627.261719 1234.617188 630.957031 1230.941406 635.519531 1230.941406 C 640.0625 1230.941406 643.761719 1234.617188 643.761719 1239.175781 L 643.761719 1353.710938 C 658.261719 1350.019531 669.066406 1336.972656 669.066406 1321.351562 L 669.066406 1239.332031 C 669.066406 1221.953125 654.910156 1207.792969 637.5 1207.792969 Z M 637.5 1207.792969 " fill-opacity="1" fill-rule="nonzero"/></g><g clip-path="url(#76474620b6)"><path fill="#000000" d="M 413.222656 1267.023438 C 413.222656 1266.976562 413.207031 1266.929688 413.207031 1266.882812 L 413.207031 1224.953125 C 407.796875 1214.550781 397.277344 1207.792969 385.402344 1207.792969 L 291.570312 1207.792969 C 274.160156 1207.792969 259.988281 1221.953125 259.988281 1239.332031 L 259.988281 1321.351562 C 259.988281 1336.972656 270.792969 1350.019531 285.296875 1353.710938 L 285.296875 1239.175781 C 285.296875 1234.617188 288.992188 1230.941406 293.535156 1230.941406 C 298.097656 1230.941406 301.792969 1234.617188 301.792969 1239.175781 L 301.792969 1363.09375 C 301.792969 1363.125 301.777344 1363.15625 301.777344 1363.171875 L 301.777344 1485.246094 L 328.359375 1485.246094 L 328.359375 1370.226562 C 328.359375 1365.671875 332.054688 1361.992188 336.597656 1361.992188 C 341.160156 1361.992188 344.855469 1365.671875 344.855469 1370.226562 L 344.855469 1485.246094 L 371.453125 1485.246094 L 371.453125 1239.175781 C 371.453125 1234.617188 375.148438 1230.941406 379.707031 1230.941406 C 384.253906 1230.941406 387.949219 1234.617188 387.949219 1239.175781 L 387.949219 1278.480469 C 394.917969 1272.367188 403.597656 1268.296875 413.222656 1267.023438 Z M 413.222656 1267.023438 " fill-opacity="1" fill-rule="nonzero"/></g><g clip-path="url(#cac703ac28)"><path fill="#000000" d="M 541.121094 1363.09375 L 541.121094 1314.09375 C 540.949219 1296.851562 526.886719 1282.867188 509.585938 1282.867188 L 419.515625 1282.867188 C 402.105469 1282.867188 387.949219 1297.007812 387.949219 1314.40625 L 387.949219 1396.410156 C 387.949219 1412.015625 398.722656 1425.042969 413.207031 1428.753906 L 413.207031 1314.25 C 413.207031 1309.691406 416.886719 1306 421.449219 1306 C 426.011719 1306 429.691406 1309.691406 429.691406 1314.25 L 429.691406 1437.992188 C 429.691406 1438.054688 429.722656 1438.105469 429.722656 1438.152344 L 429.722656 1558.652344 L 456.300781 1558.652344 L 456.300781 1438.152344 C 456.300781 1433.59375 459.984375 1429.914062 464.542969 1429.914062 C 469.105469 1429.914062 472.785156 1433.59375 472.785156 1438.152344 L 472.785156 1558.652344 L 499.378906 1558.652344 L 499.378906 1438.230469 C 499.378906 1438.214844 499.363281 1438.183594 499.363281 1438.152344 L 499.363281 1314.25 C 499.363281 1309.691406 503.042969 1306 507.605469 1306 C 512.167969 1306 515.847656 1309.691406 515.847656 1314.25 L 515.847656 1428.769531 C 530.253906 1425.105469 540.980469 1412.203125 541.121094 1396.726562 L 541.121094 1370.226562 C 541.121094 1370.164062 541.152344 1370.117188 541.152344 1370.070312 L 541.152344 1363.265625 C 541.152344 1363.203125 541.121094 1363.15625 541.121094 1363.09375 Z M 541.121094 1363.09375 " fill-opacity="1" fill-rule="nonzero"/></g><g clip-path="url(#7e0698401f)"><path fill="#000000" d="M 886.484375 985.324219 C 886.484375 1004.480469 870.898438 1020.054688 851.757812 1020.054688 C 832.585938 1020.054688 817 1004.480469 817 985.324219 C 817 966.183594 832.585938 950.609375 851.757812 950.609375 C 870.898438 950.609375 886.484375 966.183594 886.484375 985.324219 Z M 896.785156 1036.539062 L 802.9375 1036.539062 C 790.65625 1036.539062 779.695312 1043.707031 774.503906 1054.753906 C 774.707031 1056.640625 775.070312 1058.464844 775.070312 1060.398438 C 775.070312 1073.832031 769.753906 1085.980469 761.261719 1095.113281 L 768.871094 1095.113281 C 780.984375 1095.113281 791.945312 1099.78125 800.40625 1107.199219 L 800.40625 1067.910156 C 800.40625 1063.367188 804.101562 1059.671875 808.648438 1059.671875 C 813.210938 1059.671875 816.90625 1063.367188 816.90625 1067.910156 L 816.90625 1119.265625 C 826.058594 1110.734375 838.261719 1105.390625 851.757812 1105.390625 C 865.21875 1105.390625 877.394531 1110.71875 886.546875 1119.234375 L 886.546875 1067.910156 C 886.546875 1063.367188 890.242188 1059.671875 894.804688 1059.671875 C 899.347656 1059.671875 903.046875 1063.367188 903.046875 1067.910156 L 903.046875 1182.445312 C 917.546875 1178.75 928.351562 1165.707031 928.351562 1150.085938 L 928.351562 1068.082031 C 928.351562 1050.683594 914.195312 1036.539062 896.785156 1036.539062 Z M 768.871094 1111.597656 L 678.800781 1111.597656 C 661.390625 1111.597656 647.234375 1125.757812 647.234375 1143.140625 L 647.234375 1191.511719 C 656.5 1192 665.195312 1195.078125 672.492188 1200.25 L 672.492188 1142.980469 C 672.492188 1138.425781 676.175781 1134.730469 680.734375 1134.730469 C 685.296875 1134.730469 688.976562 1138.425781 688.976562 1142.980469 L 688.976562 1194.339844 C 698.144531 1185.789062 710.335938 1180.449219 723.828125 1180.449219 C 737.308594 1180.449219 749.496094 1185.773438 758.648438 1194.308594 L 758.648438 1142.980469 C 758.648438 1138.425781 762.332031 1134.730469 766.890625 1134.730469 C 771.453125 1134.730469 775.132812 1138.425781 775.132812 1142.980469 L 775.132812 1200.25 C 782.429688 1195.078125 791.144531 1192 800.40625 1191.511719 L 800.40625 1142.824219 C 800.234375 1125.585938 786.171875 1111.597656 768.871094 1111.597656 Z M 723.828125 1025.664062 C 704.65625 1025.664062 689.070312 1041.238281 689.070312 1060.398438 C 689.070312 1079.539062 704.65625 1095.113281 723.828125 1095.113281 C 743 1095.113281 758.585938 1079.539062 758.585938 1060.398438 C 758.585938 1041.238281 743 1025.664062 723.828125 1025.664062 Z M 672.589844 1060.398438 C 672.589844 1058.464844 672.949219 1056.640625 673.15625 1054.785156 C 667.964844 1043.707031 657.003906 1036.539062 644.6875 1036.539062 L 550.855469 1036.539062 C 533.445312 1036.539062 519.273438 1050.683594 519.273438 1068.082031 L 519.273438 1150.085938 C 519.273438 1165.707031 530.078125 1178.75 544.582031 1182.445312 L 544.582031 1067.910156 C 544.582031 1063.367188 548.277344 1059.671875 552.820312 1059.671875 C 557.382812 1059.671875 561.078125 1063.367188 561.078125 1067.910156 L 561.078125 1119.25 C 570.234375 1110.71875 582.40625 1105.390625 595.882812 1105.390625 C 609.378906 1105.390625 621.582031 1110.734375 630.738281 1119.265625 L 630.738281 1067.910156 C 630.738281 1063.367188 634.433594 1059.671875 638.992188 1059.671875 C 643.539062 1059.671875 647.234375 1063.367188 647.234375 1067.910156 L 647.234375 1107.230469 C 655.695312 1099.78125 666.675781 1095.113281 678.800781 1095.113281 L 686.398438 1095.113281 C 677.902344 1085.980469 672.589844 1073.832031 672.589844 1060.398438 Z M 595.882812 950.609375 C 576.726562 950.609375 561.140625 966.183594 561.140625 985.324219 C 561.140625 1004.480469 576.726562 1020.054688 595.882812 1020.054688 C 615.054688 1020.054688 630.640625 1004.480469 630.640625 985.324219 C 630.640625 966.183594 615.054688 950.609375 595.882812 950.609375 Z M 595.882812 950.609375 " fill-opacity="1" fill-rule="nonzero"/></g><path fill="#000000" d="M 595.882812 1191.324219 C 615.054688 1191.324219 630.640625 1175.75 630.640625 1156.589844 C 630.640625 1137.449219 615.054688 1121.859375 595.882812 1121.859375 C 576.726562 1121.859375 561.140625 1137.449219 561.140625 1156.589844 C 561.140625 1175.75 576.726562 1191.324219 595.882812 1191.324219 Z M 595.882812 1191.324219 " fill-opacity="1" fill-rule="nonzero"/><path fill="#000000" d="M 851.757812 1191.324219 C 870.898438 1191.324219 886.484375 1175.75 886.484375 1156.589844 C 886.484375 1137.449219 870.898438 1121.859375 851.757812 1121.859375 C 832.585938 1121.859375 817 1137.449219 817 1156.589844 C 817 1175.75 832.585938 1191.324219 851.757812 1191.324219 Z M 851.757812 1191.324219 " fill-opacity="1" fill-rule="nonzero"/><path fill="#000000" d="M 723.828125 1266.378906 C 743 1266.378906 758.585938 1250.804688 758.585938 1231.648438 C 758.585938 1212.507812 743 1196.933594 723.828125 1196.933594 C 704.65625 1196.933594 689.070312 1212.507812 689.070312 1231.648438 C 689.070312 1250.804688 704.65625 1266.378906 723.828125 1266.378906 Z M 723.828125 1266.378906 " fill-opacity="1" fill-rule="nonzero"/><g clip-path="url(#0e4c19050f)"><path fill="#000000" d="M 896.785156 1207.792969 L 802.9375 1207.792969 C 791.066406 1207.792969 780.527344 1214.566406 775.132812 1224.984375 L 775.132812 1266.882812 C 775.132812 1266.929688 775.117188 1266.976562 775.117188 1267.007812 C 784.757812 1268.28125 793.4375 1272.351562 800.40625 1278.464844 L 800.40625 1239.175781 C 800.40625 1234.617188 804.101562 1230.941406 808.648438 1230.941406 C 813.210938 1230.941406 816.90625 1234.617188 816.90625 1239.175781 L 816.90625 1314.09375 C 816.90625 1314.1875 816.9375 1314.296875 816.9375 1314.40625 L 816.9375 1396.410156 C 816.9375 1396.535156 816.90625 1396.644531 816.90625 1396.773438 L 816.90625 1485.246094 L 843.5 1485.246094 L 843.5 1370.226562 C 843.5 1365.671875 847.195312 1361.992188 851.757812 1361.992188 C 856.304688 1361.992188 860 1365.671875 860 1370.226562 L 860 1485.246094 L 886.5625 1485.246094 L 886.5625 1363.171875 C 886.5625 1363.15625 886.546875 1363.125 886.546875 1363.09375 L 886.546875 1239.175781 C 886.546875 1234.617188 890.242188 1230.941406 894.804688 1230.941406 C 899.347656 1230.941406 903.046875 1234.617188 903.046875 1239.175781 L 903.046875 1353.710938 C 917.546875 1350.019531 928.351562 1336.972656 928.351562 1321.351562 L 928.351562 1239.332031 C 928.351562 1221.953125 914.195312 1207.792969 896.785156 1207.792969 Z M 896.785156 1207.792969 " fill-opacity="1" fill-rule="nonzero"/></g><g clip-path="url(#35454ee4fb)"><path fill="#000000" d="M 672.507812 1267.023438 C 672.507812 1266.976562 672.492188 1266.929688 672.492188 1266.882812 L 672.492188 1224.953125 C 667.082031 1214.550781 656.5625 1207.792969 644.6875 1207.792969 L 550.855469 1207.792969 C 533.445312 1207.792969 519.273438 1221.953125 519.273438 1239.332031 L 519.273438 1321.351562 C 519.273438 1336.972656 530.078125 1350.019531 544.582031 1353.710938 L 544.582031 1239.175781 C 544.582031 1234.617188 548.277344 1230.941406 552.820312 1230.941406 C 557.382812 1230.941406 561.078125 1234.617188 561.078125 1239.175781 L 561.078125 1363.09375 C 561.078125 1363.125 561.0625 1363.15625 561.0625 1363.171875 L 561.0625 1485.246094 L 587.644531 1485.246094 L 587.644531 1370.226562 C 587.644531 1365.671875 591.339844 1361.992188 595.882812 1361.992188 C 600.445312 1361.992188 604.140625 1365.671875 604.140625 1370.226562 L 604.140625 1485.246094 L 630.738281 1485.246094 L 630.738281 1239.175781 C 630.738281 1234.617188 634.433594 1230.941406 638.992188 1230.941406 C 643.539062 1230.941406 647.234375 1234.617188 647.234375 1239.175781 L 647.234375 1278.480469 C 654.203125 1272.367188 662.882812 1268.296875 672.507812 1267.023438 Z M 672.507812 1267.023438 " fill-opacity="1" fill-rule="nonzero"/></g><g clip-path="url(#f75e8a6b46)"><path fill="#000000" d="M 800.40625 1363.09375 L 800.40625 1314.09375 C 800.234375 1296.851562 786.171875 1282.867188 768.871094 1282.867188 L 678.800781 1282.867188 C 661.390625 1282.867188 647.234375 1297.007812 647.234375 1314.40625 L 647.234375 1396.410156 C 647.234375 1412.015625 658.007812 1425.042969 672.492188 1428.753906 L 672.492188 1314.25 C 672.492188 1309.691406 676.175781 1306 680.734375 1306 C 685.296875 1306 688.976562 1309.691406 688.976562 1314.25 L 688.976562 1437.992188 C 688.976562 1438.054688 689.007812 1438.105469 689.007812 1438.152344 L 689.007812 1558.652344 L 715.585938 1558.652344 L 715.585938 1438.152344 C 715.585938 1433.59375 719.269531 1429.914062 723.828125 1429.914062 C 728.390625 1429.914062 732.070312 1433.59375 732.070312 1438.152344 L 732.070312 1558.652344 L 758.664062 1558.652344 L 758.664062 1438.230469 C 758.664062 1438.214844 758.648438 1438.183594 758.648438 1438.152344 L 758.648438 1314.25 C 758.648438 1309.691406 762.332031 1306 766.890625 1306 C 771.453125 1306 775.132812 1309.691406 775.132812 1314.25 L 775.132812 1428.769531 C 789.539062 1425.105469 800.265625 1412.203125 800.40625 1396.726562 L 800.40625 1370.226562 C 800.40625 1370.164062 800.4375 1370.117188 800.4375 1370.070312 L 800.4375 1363.265625 C 800.4375 1363.203125 800.40625 1363.15625 800.40625 1363.09375 Z M 800.40625 1363.09375 " fill-opacity="1" fill-rule="nonzero"/></g><g clip-path="url(#b0f58d5d75)"><path fill="#000000" d="M 1145.769531 985.324219 C 1145.769531 1004.480469 1130.183594 1020.054688 1111.042969 1020.054688 C 1091.871094 1020.054688 1076.285156 1004.480469 1076.285156 985.324219 C 1076.285156 966.183594 1091.871094 950.609375 1111.042969 950.609375 C 1130.183594 950.609375 1145.769531 966.183594 1145.769531 985.324219 Z M 1156.070312 1036.539062 L 1062.222656 1036.539062 C 1049.941406 1036.539062 1038.980469 1043.707031 1033.789062 1054.753906 C 1033.992188 1056.640625 1034.355469 1058.464844 1034.355469 1060.398438 C 1034.355469 1073.832031 1029.039062 1085.980469 1020.546875 1095.113281 L 1028.160156 1095.113281 C 1040.269531 1095.113281 1051.230469 1099.78125 1059.691406 1107.199219 L 1059.691406 1067.910156 C 1059.691406 1063.367188 1063.386719 1059.671875 1067.933594 1059.671875 C 1072.496094 1059.671875 1076.191406 1063.367188 1076.191406 1067.910156 L 1076.191406 1119.265625 C 1085.34375 1110.734375 1097.546875 1105.390625 1111.042969 1105.390625 C 1124.507812 1105.390625 1136.679688 1110.71875 1145.832031 1119.234375 L 1145.832031 1067.910156 C 1145.832031 1063.367188 1149.527344 1059.671875 1154.089844 1059.671875 C 1158.636719 1059.671875 1162.332031 1063.367188 1162.332031 1067.910156 L 1162.332031 1182.445312 C 1176.832031 1178.75 1187.636719 1165.707031 1187.636719 1150.085938 L 1187.636719 1068.082031 C 1187.636719 1050.683594 1173.480469 1036.539062 1156.070312 1036.539062 Z M 1028.160156 1111.597656 L 938.085938 1111.597656 C 920.675781 1111.597656 906.519531 1125.757812 906.519531 1143.140625 L 906.519531 1191.511719 C 915.785156 1192 924.480469 1195.078125 931.777344 1200.25 L 931.777344 1142.980469 C 931.777344 1138.425781 935.460938 1134.730469 940.019531 1134.730469 C 944.582031 1134.730469 948.261719 1138.425781 948.261719 1142.980469 L 948.261719 1194.339844 C 957.429688 1185.789062 969.621094 1180.449219 983.113281 1180.449219 C 996.59375 1180.449219 1008.78125 1185.773438 1017.933594 1194.308594 L 1017.933594 1142.980469 C 1017.933594 1138.425781 1021.617188 1134.730469 1026.175781 1134.730469 C 1030.738281 1134.730469 1034.417969 1138.425781 1034.417969 1142.980469 L 1034.417969 1200.25 C 1041.714844 1195.078125 1050.429688 1192 1059.691406 1191.511719 L 1059.691406 1142.824219 C 1059.519531 1125.585938 1045.457031 1111.597656 1028.160156 1111.597656 Z M 983.113281 1025.664062 C 963.941406 1025.664062 948.355469 1041.238281 948.355469 1060.398438 C 948.355469 1079.539062 963.941406 1095.113281 983.113281 1095.113281 C 1002.285156 1095.113281 1017.871094 1079.539062 1017.871094 1060.398438 C 1017.871094 1041.238281 1002.285156 1025.664062 983.113281 1025.664062 Z M 931.875 1060.398438 C 931.875 1058.464844 932.234375 1056.640625 932.441406 1054.785156 C 927.25 1043.707031 916.289062 1036.539062 903.972656 1036.539062 L 810.140625 1036.539062 C 792.730469 1036.539062 778.558594 1050.683594 778.558594 1068.082031 L 778.558594 1150.085938 C 778.558594 1165.707031 789.367188 1178.75 803.867188 1182.445312 L 803.867188 1067.910156 C 803.867188 1063.367188 807.5625 1059.671875 812.109375 1059.671875 C 816.667969 1059.671875 820.363281 1063.367188 820.363281 1067.910156 L 820.363281 1119.25 C 829.519531 1110.71875 841.691406 1105.390625 855.167969 1105.390625 C 868.664062 1105.390625 880.867188 1110.734375 890.023438 1119.265625 L 890.023438 1067.910156 C 890.023438 1063.367188 893.71875 1059.671875 898.277344 1059.671875 C 902.824219 1059.671875 906.519531 1063.367188 906.519531 1067.910156 L 906.519531 1107.230469 C 914.980469 1099.78125 925.960938 1095.113281 938.085938 1095.113281 L 945.683594 1095.113281 C 937.191406 1085.980469 931.875 1073.832031 931.875 1060.398438 Z M 855.167969 950.609375 C 836.011719 950.609375 820.425781 966.183594 820.425781 985.324219 C 820.425781 1004.480469 836.011719 1020.054688 855.167969 1020.054688 C 874.34375 1020.054688 889.929688 1004.480469 889.929688 985.324219 C 889.929688 966.183594 874.34375 950.609375 855.167969 950.609375 Z M 855.167969 950.609375 " fill-opacity="1" fill-rule="nonzero"/></g><path fill="#000000" d="M 855.167969 1191.324219 C 874.34375 1191.324219 889.929688 1175.75 889.929688 1156.589844 C 889.929688 1137.449219 874.34375 1121.859375 855.167969 1121.859375 C 836.011719 1121.859375 820.425781 1137.449219 820.425781 1156.589844 C 820.425781 1175.75 836.011719 1191.324219 855.167969 1191.324219 Z M 855.167969 1191.324219 " fill-opacity="1" fill-rule="nonzero"/><path fill="#000000" d="M 1111.042969 1191.324219 C 1130.183594 1191.324219 1145.769531 1175.75 1145.769531 1156.589844 C 1145.769531 1137.449219 1130.183594 1121.859375 1111.042969 1121.859375 C 1091.871094 1121.859375 1076.285156 1137.449219 1076.285156 1156.589844 C 1076.285156 1175.75 1091.871094 1191.324219 1111.042969 1191.324219 Z M 1111.042969 1191.324219 " fill-opacity="1" fill-rule="nonzero"/><path fill="#000000" d="M 983.113281 1266.378906 C 1002.285156 1266.378906 1017.871094 1250.804688 1017.871094 1231.648438 C 1017.871094 1212.507812 1002.285156 1196.933594 983.113281 1196.933594 C 963.941406 1196.933594 948.355469 1212.507812 948.355469 1231.648438 C 948.355469 1250.804688 963.941406 1266.378906 983.113281 1266.378906 Z M 983.113281 1266.378906 " fill-opacity="1" fill-rule="nonzero"/><g clip-path="url(#8caf89568e)"><path fill="#000000" d="M 1156.070312 1207.792969 L 1062.222656 1207.792969 C 1050.351562 1207.792969 1039.8125 1214.566406 1034.417969 1224.984375 L 1034.417969 1266.882812 C 1034.417969 1266.929688 1034.402344 1266.976562 1034.402344 1267.007812 C 1044.042969 1268.28125 1052.726562 1272.351562 1059.691406 1278.464844 L 1059.691406 1239.175781 C 1059.691406 1234.617188 1063.386719 1230.941406 1067.933594 1230.941406 C 1072.496094 1230.941406 1076.191406 1234.617188 1076.191406 1239.175781 L 1076.191406 1314.09375 C 1076.191406 1314.1875 1076.222656 1314.296875 1076.222656 1314.40625 L 1076.222656 1396.410156 C 1076.222656 1396.535156 1076.191406 1396.644531 1076.191406 1396.773438 L 1076.191406 1485.246094 L 1102.785156 1485.246094 L 1102.785156 1370.226562 C 1102.785156 1365.671875 1106.480469 1361.992188 1111.042969 1361.992188 C 1115.589844 1361.992188 1119.285156 1365.671875 1119.285156 1370.226562 L 1119.285156 1485.246094 L 1145.847656 1485.246094 L 1145.847656 1363.171875 C 1145.847656 1363.15625 1145.832031 1363.125 1145.832031 1363.09375 L 1145.832031 1239.175781 C 1145.832031 1234.617188 1149.527344 1230.941406 1154.089844 1230.941406 C 1158.636719 1230.941406 1162.332031 1234.617188 1162.332031 1239.175781 L 1162.332031 1353.710938 C 1176.832031 1350.019531 1187.636719 1336.972656 1187.636719 1321.351562 L 1187.636719 1239.332031 C 1187.636719 1221.953125 1173.480469 1207.792969 1156.070312 1207.792969 Z M 1156.070312 1207.792969 " fill-opacity="1" fill-rule="nonzero"/></g><g clip-path="url(#9bff828d09)"><path fill="#000000" d="M 931.796875 1267.023438 C 931.796875 1266.976562 931.777344 1266.929688 931.777344 1266.882812 L 931.777344 1224.953125 C 926.367188 1214.550781 915.847656 1207.792969 903.972656 1207.792969 L 810.140625 1207.792969 C 792.730469 1207.792969 778.558594 1221.953125 778.558594 1239.332031 L 778.558594 1321.351562 C 778.558594 1336.972656 789.367188 1350.019531 803.867188 1353.710938 L 803.867188 1239.175781 C 803.867188 1234.617188 807.5625 1230.941406 812.109375 1230.941406 C 816.667969 1230.941406 820.363281 1234.617188 820.363281 1239.175781 L 820.363281 1363.09375 C 820.363281 1363.125 820.347656 1363.15625 820.347656 1363.171875 L 820.347656 1485.246094 L 846.929688 1485.246094 L 846.929688 1370.226562 C 846.929688 1365.671875 850.625 1361.992188 855.167969 1361.992188 C 859.730469 1361.992188 863.425781 1365.671875 863.425781 1370.226562 L 863.425781 1485.246094 L 890.023438 1485.246094 L 890.023438 1239.175781 C 890.023438 1234.617188 893.71875 1230.941406 898.28125 1230.941406 C 902.824219 1230.941406 906.519531 1234.617188 906.519531 1239.175781 L 906.519531 1278.480469 C 913.488281 1272.367188 922.167969 1268.296875 931.796875 1267.023438 Z M 931.796875 1267.023438 " fill-opacity="1" fill-rule="nonzero"/></g><g clip-path="url(#bfc904e52e)"><path fill="#000000" d="M 1059.691406 1363.09375 L 1059.691406 1314.09375 C 1059.519531 1296.851562 1045.457031 1282.867188 1028.160156 1282.867188 L 938.085938 1282.867188 C 920.675781 1282.867188 906.519531 1297.007812 906.519531 1314.40625 L 906.519531 1396.410156 C 906.519531 1412.015625 917.292969 1425.042969 931.777344 1428.753906 L 931.777344 1314.25 C 931.777344 1309.691406 935.460938 1306 940.019531 1306 C 944.582031 1306 948.261719 1309.691406 948.261719 1314.25 L 948.261719 1437.992188 C 948.261719 1438.054688 948.292969 1438.105469 948.292969 1438.152344 L 948.292969 1558.652344 L 974.875 1558.652344 L 974.875 1438.152344 C 974.875 1433.59375 978.554688 1429.914062 983.113281 1429.914062 C 987.675781 1429.914062 991.355469 1433.59375 991.355469 1438.152344 L 991.355469 1558.652344 L 1017.949219 1558.652344 L 1017.949219 1438.230469 C 1017.949219 1438.214844 1017.933594 1438.183594 1017.933594 1438.152344 L 1017.933594 1314.25 C 1017.933594 1309.691406 1021.617188 1306 1026.175781 1306 C 1030.738281 1306 1034.417969 1309.691406 1034.417969 1314.25 L 1034.417969 1428.769531 C 1048.824219 1425.105469 1059.550781 1412.203125 1059.691406 1396.726562 L 1059.691406 1370.226562 C 1059.691406 1370.164062 1059.722656 1370.117188 1059.722656 1370.070312 L 1059.722656 1363.265625 C 1059.722656 1363.203125 1059.691406 1363.15625 1059.691406 1363.09375 Z M 1059.691406 1363.09375 " fill-opacity="1" fill-rule="nonzero"/></g><g clip-path="url(#478afec514)"><path fill="#000000" d="M 1405.054688 985.324219 C 1405.054688 1004.480469 1389.46875 1020.054688 1370.328125 1020.054688 C 1351.15625 1020.054688 1335.570312 1004.480469 1335.570312 985.324219 C 1335.570312 966.183594 1351.15625 950.609375 1370.328125 950.609375 C 1389.46875 950.609375 1405.054688 966.183594 1405.054688 985.324219 Z M 1415.355469 1036.539062 L 1321.511719 1036.539062 C 1309.226562 1036.539062 1298.265625 1043.707031 1293.074219 1054.753906 C 1293.277344 1056.640625 1293.640625 1058.464844 1293.640625 1060.398438 C 1293.640625 1073.832031 1288.324219 1085.980469 1279.832031 1095.113281 L 1287.445312 1095.113281 C 1299.554688 1095.113281 1310.515625 1099.78125 1318.976562 1107.199219 L 1318.976562 1067.910156 C 1318.976562 1063.367188 1322.671875 1059.671875 1327.21875 1059.671875 C 1331.78125 1059.671875 1335.476562 1063.367188 1335.476562 1067.910156 L 1335.476562 1119.265625 C 1344.628906 1110.734375 1356.835938 1105.390625 1370.328125 1105.390625 C 1383.792969 1105.390625 1395.964844 1110.71875 1405.117188 1119.234375 L 1405.117188 1067.910156 C 1405.117188 1063.367188 1408.8125 1059.671875 1413.375 1059.671875 C 1417.921875 1059.671875 1421.617188 1063.367188 1421.617188 1067.910156 L 1421.617188 1182.445312 C 1436.117188 1178.75 1446.921875 1165.707031 1446.921875 1150.085938 L 1446.921875 1068.082031 C 1446.921875 1050.683594 1432.765625 1036.539062 1415.355469 1036.539062 Z M 1287.445312 1111.597656 L 1197.371094 1111.597656 C 1179.960938 1111.597656 1165.804688 1125.757812 1165.804688 1143.140625 L 1165.804688 1191.511719 C 1175.070312 1192 1183.765625 1195.078125 1191.066406 1200.25 L 1191.066406 1142.980469 C 1191.066406 1138.425781 1194.746094 1134.730469 1199.304688 1134.730469 C 1203.867188 1134.730469 1207.546875 1138.425781 1207.546875 1142.980469 L 1207.546875 1194.339844 C 1216.714844 1185.789062 1228.90625 1180.449219 1242.398438 1180.449219 C 1255.878906 1180.449219 1268.066406 1185.773438 1277.222656 1194.308594 L 1277.222656 1142.980469 C 1277.222656 1138.425781 1280.902344 1134.730469 1285.460938 1134.730469 C 1290.023438 1134.730469 1293.703125 1138.425781 1293.703125 1142.980469 L 1293.703125 1200.25 C 1301 1195.078125 1309.714844 1192 1318.976562 1191.511719 L 1318.976562 1142.824219 C 1318.804688 1125.585938 1304.746094 1111.597656 1287.445312 1111.597656 Z M 1242.398438 1025.664062 C 1223.226562 1025.664062 1207.640625 1041.238281 1207.640625 1060.398438 C 1207.640625 1079.539062 1223.226562 1095.113281 1242.398438 1095.113281 C 1261.570312 1095.113281 1277.15625 1079.539062 1277.15625 1060.398438 C 1277.15625 1041.238281 1261.570312 1025.664062 1242.398438 1025.664062 Z M 1191.160156 1060.398438 C 1191.160156 1058.464844 1191.519531 1056.640625 1191.726562 1054.785156 C 1186.535156 1043.707031 1175.574219 1036.539062 1163.257812 1036.539062 L 1069.425781 1036.539062 C 1052.015625 1036.539062 1037.847656 1050.683594 1037.847656 1068.082031 L 1037.847656 1150.085938 C 1037.847656 1165.707031 1048.652344 1178.75 1063.152344 1182.445312 L 1063.152344 1067.910156 C 1063.152344 1063.367188 1066.847656 1059.671875 1071.394531 1059.671875 C 1075.953125 1059.671875 1079.648438 1063.367188 1079.648438 1067.910156 L 1079.648438 1119.25 C 1088.804688 1110.71875 1100.976562 1105.390625 1114.457031 1105.390625 C 1127.949219 1105.390625 1140.152344 1110.734375 1149.308594 1119.265625 L 1149.308594 1067.910156 C 1149.308594 1063.367188 1153.003906 1059.671875 1157.566406 1059.671875 C 1162.109375 1059.671875 1165.804688 1063.367188 1165.804688 1067.910156 L 1165.804688 1107.230469 C 1174.265625 1099.78125 1185.246094 1095.113281 1197.371094 1095.113281 L 1204.96875 1095.113281 C 1196.476562 1085.980469 1191.160156 1073.832031 1191.160156 1060.398438 Z M 1114.457031 950.609375 C 1095.300781 950.609375 1079.710938 966.183594 1079.710938 985.324219 C 1079.710938 1004.480469 1095.300781 1020.054688 1114.457031 1020.054688 C 1133.628906 1020.054688 1149.214844 1004.480469 1149.214844 985.324219 C 1149.214844 966.183594 1133.628906 950.609375 1114.457031 950.609375 Z M 1114.457031 950.609375 " fill-opacity="1" fill-rule="nonzero"/></g><path fill="#000000" d="M 1114.457031 1191.324219 C 1133.628906 1191.324219 1149.214844 1175.75 1149.214844 1156.589844 C 1149.214844 1137.449219 1133.628906 1121.859375 1114.457031 1121.859375 C 1095.300781 1121.859375 1079.710938 1137.449219 1079.710938 1156.589844 C 1079.710938 1175.75 1095.300781 1191.324219 1114.457031 1191.324219 Z M 1114.457031 1191.324219 " fill-opacity="1" fill-rule="nonzero"/><path fill="#000000" d="M 1370.328125 1191.324219 C 1389.46875 1191.324219 1405.054688 1175.75 1405.054688 1156.589844 C 1405.054688 1137.449219 1389.46875 1121.859375 1370.328125 1121.859375 C 1351.15625 1121.859375 1335.570312 1137.449219 1335.570312 1156.589844 C 1335.570312 1175.75 1351.15625 1191.324219 1370.328125 1191.324219 Z M 1370.328125 1191.324219 " fill-opacity="1" fill-rule="nonzero"/><path fill="#000000" d="M 1242.398438 1266.378906 C 1261.570312 1266.378906 1277.15625 1250.804688 1277.15625 1231.648438 C 1277.15625 1212.507812 1261.570312 1196.933594 1242.398438 1196.933594 C 1223.226562 1196.933594 1207.640625 1212.507812 1207.640625 1231.648438 C 1207.640625 1250.804688 1223.226562 1266.378906 1242.398438 1266.378906 Z M 1242.398438 1266.378906 " fill-opacity="1" fill-rule="nonzero"/><g clip-path="url(#c9d79b7bbf)"><path fill="#000000" d="M 1415.355469 1207.792969 L 1321.511719 1207.792969 C 1309.636719 1207.792969 1299.097656 1214.566406 1293.703125 1224.984375 L 1293.703125 1266.882812 C 1293.703125 1266.929688 1293.6875 1266.976562 1293.6875 1267.007812 C 1303.328125 1268.28125 1312.011719 1272.351562 1318.976562 1278.464844 L 1318.976562 1239.175781 C 1318.976562 1234.617188 1322.671875 1230.941406 1327.21875 1230.941406 C 1331.78125 1230.941406 1335.476562 1234.617188 1335.476562 1239.175781 L 1335.476562 1314.09375 C 1335.476562 1314.1875 1335.507812 1314.296875 1335.507812 1314.40625 L 1335.507812 1396.410156 C 1335.507812 1396.535156 1335.476562 1396.644531 1335.476562 1396.773438 L 1335.476562 1485.246094 L 1362.070312 1485.246094 L 1362.070312 1370.226562 C 1362.070312 1365.671875 1365.765625 1361.992188 1370.328125 1361.992188 C 1374.875 1361.992188 1378.570312 1365.671875 1378.570312 1370.226562 L 1378.570312 1485.246094 L 1405.132812 1485.246094 L 1405.132812 1363.171875 C 1405.132812 1363.15625 1405.117188 1363.125 1405.117188 1363.09375 L 1405.117188 1239.175781 C 1405.117188 1234.617188 1408.8125 1230.941406 1413.375 1230.941406 C 1417.921875 1230.941406 1421.617188 1234.617188 1421.617188 1239.175781 L 1421.617188 1353.710938 C 1436.117188 1350.019531 1446.921875 1336.972656 1446.921875 1321.351562 L 1446.921875 1239.332031 C 1446.921875 1221.953125 1432.765625 1207.792969 1415.355469 1207.792969 Z M 1415.355469 1207.792969 " fill-opacity="1" fill-rule="nonzero"/></g><g clip-path="url(#d535056fe3)"><path fill="#000000" d="M 1191.082031 1267.023438 C 1191.082031 1266.976562 1191.066406 1266.929688 1191.066406 1266.882812 L 1191.066406 1224.953125 C 1185.65625 1214.550781 1175.132812 1207.792969 1163.257812 1207.792969 L 1069.425781 1207.792969 C 1052.015625 1207.792969 1037.847656 1221.953125 1037.847656 1239.332031 L 1037.847656 1321.351562 C 1037.847656 1336.972656 1048.652344 1350.019531 1063.152344 1353.710938 L 1063.152344 1239.175781 C 1063.152344 1234.617188 1066.847656 1230.941406 1071.394531 1230.941406 C 1075.953125 1230.941406 1079.648438 1234.617188 1079.648438 1239.175781 L 1079.648438 1363.09375 C 1079.648438 1363.125 1079.632812 1363.15625 1079.632812 1363.171875 L 1079.632812 1485.246094 L 1106.214844 1485.246094 L 1106.214844 1370.226562 C 1106.214844 1365.671875 1109.910156 1361.992188 1114.457031 1361.992188 C 1119.015625 1361.992188 1122.710938 1365.671875 1122.710938 1370.226562 L 1122.710938 1485.246094 L 1149.308594 1485.246094 L 1149.308594 1239.175781 C 1149.308594 1234.617188 1153.003906 1230.941406 1157.566406 1230.941406 C 1162.109375 1230.941406 1165.804688 1234.617188 1165.804688 1239.175781 L 1165.804688 1278.480469 C 1172.773438 1272.367188 1181.453125 1268.296875 1191.082031 1267.023438 Z M 1191.082031 1267.023438 " fill-opacity="1" fill-rule="nonzero"/></g><g clip-path="url(#0c8e7a6baf)"><path fill="#000000" d="M 1318.976562 1363.09375 L 1318.976562 1314.09375 C 1318.804688 1296.851562 1304.746094 1282.867188 1287.445312 1282.867188 L 1197.371094 1282.867188 C 1179.960938 1282.867188 1165.804688 1297.007812 1165.804688 1314.40625 L 1165.804688 1396.410156 C 1165.804688 1412.015625 1176.578125 1425.042969 1191.066406 1428.753906 L 1191.066406 1314.25 C 1191.066406 1309.691406 1194.746094 1306 1199.304688 1306 C 1203.867188 1306 1207.546875 1309.691406 1207.546875 1314.25 L 1207.546875 1437.992188 C 1207.546875 1438.054688 1207.578125 1438.105469 1207.578125 1438.152344 L 1207.578125 1558.652344 L 1234.160156 1558.652344 L 1234.160156 1438.152344 C 1234.160156 1433.59375 1237.839844 1429.914062 1242.398438 1429.914062 C 1246.960938 1429.914062 1250.640625 1433.59375 1250.640625 1438.152344 L 1250.640625 1558.652344 L 1277.238281 1558.652344 L 1277.238281 1438.230469 C 1277.238281 1438.214844 1277.222656 1438.183594 1277.222656 1438.152344 L 1277.222656 1314.25 C 1277.222656 1309.691406 1280.902344 1306 1285.460938 1306 C 1290.023438 1306 1293.703125 1309.691406 1293.703125 1314.25 L 1293.703125 1428.769531 C 1308.109375 1425.105469 1318.835938 1412.203125 1318.976562 1396.726562 L 1318.976562 1370.226562 C 1318.976562 1370.164062 1319.007812 1370.117188 1319.007812 1370.070312 L 1319.007812 1363.265625 C 1319.007812 1363.203125 1318.976562 1363.15625 1318.976562 1363.09375 Z M 1318.976562 1363.09375 " fill-opacity="1" fill-rule="nonzero"/></g></g></g></g></svg>
