<svg xmlns="http://www.w3.org/2000/svg" xmlns:xlink="http://www.w3.org/1999/xlink" width="96" zoomAndPan="magnify" viewBox="0 0 72 72" height="96" preserveAspectRatio="xMidYMid meet" version="1.0"><defs><clipPath id="26952f9be5"><path d="M 0 0.785156 L 71 0.785156 L 71 72 L 0 72 Z M 0 0.785156 " clip-rule="nonzero"/></clipPath></defs><g clip-path="url(#26952f9be5)"><path fill="#000000" d="M 69.925781 31.3125 C 67.5625 13.875 52.921875 0.800781 35.332031 0.789062 C 24.234375 0.78125 13.136719 0.78125 2.039062 0.789062 C 1.355469 0.792969 0.679688 0.828125 0.015625 0.894531 L 0.015625 9.449219 C 0.0390625 9.734375 0.0546875 9.9375 0.0546875 10.132812 C 0.0546875 22.894531 0.0507812 35.65625 0.0507812 48.414062 C 0.0507812 52.515625 0.0507812 56.613281 0.046875 60.710938 C 0.046875 60.992188 0.0429688 61.277344 0.015625 61.554688 L 0.015625 72.023438 C 4.734375 70.660156 7.816406 66.558594 7.839844 61.445312 C 7.863281 57.101562 7.863281 52.757812 7.859375 48.414062 L 7.851562 48.414062 C 7.847656 46.589844 7.847656 44.769531 7.847656 42.945312 C 7.847656 42.203125 7.847656 41.464844 7.847656 40.761719 L 32.734375 40.761719 L 32.734375 57.050781 L 40.394531 57.050781 L 40.394531 15.296875 L 32.628906 15.296875 L 32.628906 32.605469 L 7.941406 32.605469 L 7.941406 8.808594 C 18.148438 8.808594 28.132812 8.386719 38.074219 8.914062 C 51.59375 9.625 63.398438 22.4375 62.363281 38.050781 C 61.453125 51.820312 49.476562 63.144531 35.292969 63.167969 C 27.824219 63.183594 20.359375 63.167969 12.890625 63.175781 C 12.082031 63.175781 11.277344 63.25 10.480469 63.285156 L 10.480469 71.054688 C 18.742188 71.054688 26.832031 70.984375 34.925781 71.066406 C 56.390625 71.289062 72.746094 52.121094 69.925781 31.3125 Z M 69.925781 31.3125 " fill-opacity="1" fill-rule="nonzero"/></g></svg>
