<svg xmlns="http://www.w3.org/2000/svg" xmlns:xlink="http://www.w3.org/1999/xlink" width="2079" zoomAndPan="magnify" viewBox="0 0 1559.25 1559.249931" height="2079" preserveAspectRatio="xMidYMid meet" version="1.0"><defs><clipPath id="ba0a406b03"><path d="M 0 0 L 1558.5 0 L 1558.5 1558.5 L 0 1558.5 Z M 0 0 " clip-rule="nonzero"/></clipPath><clipPath id="402983b154"><path d="M 64 56 L 1558.5 56 L 1558.5 1558.5 L 64 1558.5 Z M 64 56 " clip-rule="nonzero"/></clipPath><clipPath id="b46ffabe1c"><path d="M 705 396.277344 L 799 396.277344 L 799 488 L 705 488 Z M 705 396.277344 " clip-rule="nonzero"/></clipPath><clipPath id="a2fcf9086d"><path d="M 632 503 L 871.78125 503 L 871.78125 891.851562 L 632 891.851562 Z M 632 503 " clip-rule="nonzero"/></clipPath><clipPath id="eea77ed3d1"><path d="M 455 396.277344 L 548 396.277344 L 548 489 L 455 489 Z M 455 396.277344 " clip-rule="nonzero"/></clipPath><clipPath id="0bf44cd809"><path d="M 405 503 L 600 503 L 600 891.851562 L 405 891.851562 Z M 405 503 " clip-rule="nonzero"/></clipPath><clipPath id="10ece3c57c"><rect x="0" width="1559" y="0" height="1559"/></clipPath></defs><g clip-path="url(#ba0a406b03)"><g transform="matrix(1, 0, 0, 1, 0, 0.000000000000078219)"><g clip-path="url(#10ece3c57c)"><path fill="#000000" d="M 336.65625 488.4375 C 338.734375 489.519531 340.925781 490.046875 343.117188 490.046875 C 348.109375 490.046875 352.90625 487.355469 355.375 482.640625 C 379.753906 436.378906 414.839844 396.359375 456.800781 366.988281 C 533.734375 313.097656 614.859375 306.996094 656.183594 308.273438 C 663.949219 308.550781 670.242188 302.476562 670.464844 294.820312 C 670.6875 287.164062 664.667969 280.785156 657.015625 280.539062 C 612.308594 279.429688 524.417969 285.75 440.878906 344.242188 C 395.285156 376.167969 357.234375 419.542969 330.832031 469.714844 C 327.253906 476.484375 329.859375 484.886719 336.628906 488.4375 Z M 336.65625 488.4375 " fill-opacity="1" fill-rule="nonzero"/><path fill="#000000" d="M 721.359375 318.671875 C 722.46875 319.78125 724.160156 320.890625 725.796875 321.445312 C 727.488281 322.277344 729.402344 322.554688 731.066406 322.554688 C 733.007812 322.554688 734.671875 322.277344 736.308594 321.445312 C 738 320.890625 739.636719 319.78125 741.023438 318.671875 C 743.546875 315.898438 744.933594 312.292969 744.933594 308.6875 C 744.933594 307.023438 744.65625 305.082031 743.824219 303.417969 C 743.242188 301.753906 742.132812 300.089844 741.023438 298.980469 C 739.636719 297.59375 738 296.484375 736.308594 295.929688 C 731.316406 293.710938 725.242188 295.097656 721.332031 298.980469 C 719.945312 300.089844 719.140625 301.753906 718.308594 303.417969 C 717.726562 305.082031 717.199219 307.023438 717.199219 308.6875 C 717.199219 310.628906 717.753906 312.292969 718.308594 313.957031 C 718.863281 315.621094 719.972656 317.285156 721.332031 318.671875 Z M 721.359375 318.671875 " fill-opacity="1" fill-rule="nonzero"/><g clip-path="url(#402983b154)"><path fill="#000000" d="M 231.265625 1029.738281 C 342.507812 1140.953125 488.527344 1196.5625 634.660156 1196.5625 C 746.652344 1196.5625 858.503906 1163.585938 954.769531 1098.214844 L 1038.636719 1182.085938 L 1029.484375 1191.238281 C 1026.878906 1193.84375 1025.4375 1197.367188 1025.4375 1201.054688 C 1025.4375 1204.742188 1026.90625 1208.265625 1029.484375 1210.871094 L 1337.726562 1519.117188 C 1363.851562 1545.242188 1398.214844 1558.335938 1432.550781 1558.335938 C 1466.882812 1558.335938 1501.246094 1545.269531 1527.371094 1519.117188 C 1579.652344 1466.835938 1579.652344 1381.746094 1527.371094 1329.46875 L 1219.132812 1021.222656 C 1213.726562 1015.8125 1204.933594 1015.8125 1199.523438 1021.222656 L 1190.402344 1030.347656 L 1106.53125 946.476562 C 1257.15625 724.597656 1234.527344 419.40625 1038.054688 222.933594 C 815.597656 0.5 453.667969 0.5 231.238281 222.933594 C 8.808594 445.363281 8.78125 807.304688 231.238281 1029.765625 Z M 1507.792969 1499.480469 C 1466.300781 1540.945312 1398.851562 1540.945312 1357.363281 1499.480469 L 1144.777344 1286.894531 L 1295.207031 1136.460938 L 1507.792969 1349.019531 C 1549.253906 1390.484375 1549.253906 1457.988281 1507.792969 1499.453125 Z M 1275.601562 1116.878906 L 1125.167969 1267.3125 L 1058.914062 1201.054688 L 1067.59375 1192.375 C 1067.757812 1192.207031 1067.980469 1192.152344 1068.148438 1192.011719 L 1200.300781 1059.855469 C 1200.46875 1059.691406 1200.496094 1059.496094 1200.664062 1059.332031 L 1209.371094 1050.621094 L 1275.628906 1116.878906 Z M 1170.792969 1049.957031 L 1058.246094 1162.476562 L 977.375 1081.628906 C 998.425781 1065.765625 1018.917969 1048.902344 1038.054688 1029.738281 C 1057.191406 1010.601562 1074.082031 990.105469 1089.917969 969.082031 L 1170.765625 1049.957031 Z M 634.632812 83.785156 C 773.636719 83.785156 912.613281 136.703125 1018.449219 242.511719 C 1230.03125 454.15625 1230.0625 798.511719 1018.449219 1010.128906 C 806.78125 1221.71875 462.457031 1221.746094 250.84375 1010.128906 C 39.203125 798.511719 39.203125 454.15625 250.84375 242.511719 C 356.652344 136.703125 495.628906 83.785156 634.632812 83.785156 Z M 634.632812 83.785156 " fill-opacity="1" fill-rule="nonzero"/></g><path fill="#000000" d="M 327.199219 933.773438 C 411.953125 1018.53125 523.28125 1060.910156 634.632812 1060.910156 C 745.984375 1060.910156 857.3125 1018.53125 942.066406 933.773438 C 1111.578125 764.230469 1111.578125 488.410156 942.066406 318.894531 C 859.945312 236.773438 750.785156 191.535156 634.632812 191.535156 C 518.480469 191.535156 409.320312 236.773438 327.199219 318.894531 C 157.6875 488.410156 157.6875 764.261719 327.199219 933.773438 Z M 346.804688 338.503906 C 423.6875 261.621094 525.914062 219.269531 634.632812 219.269531 C 743.351562 219.269531 845.550781 261.621094 922.460938 338.503906 C 1081.183594 497.203125 1081.183594 755.46875 922.460938 914.167969 C 763.734375 1072.863281 505.558594 1072.890625 346.804688 914.167969 C 188.082031 755.441406 188.082031 497.203125 346.804688 338.503906 Z M 346.804688 338.503906 " fill-opacity="1" fill-rule="nonzero"/><path fill="#000000" d="M 1295.429688 1223.964844 L 1355.476562 1284.039062 C 1358.191406 1286.753906 1361.742188 1288.085938 1365.292969 1288.085938 C 1368.84375 1288.085938 1372.394531 1286.726562 1375.109375 1284.039062 C 1380.519531 1278.628906 1380.519531 1269.835938 1375.109375 1264.429688 L 1315.066406 1204.355469 C 1309.660156 1198.945312 1300.867188 1198.945312 1295.457031 1204.355469 C 1290.050781 1209.761719 1290.050781 1218.554688 1295.457031 1223.964844 Z M 1295.429688 1223.964844 " fill-opacity="1" fill-rule="nonzero"/><path fill="#000000" d="M 1399.210938 1326.554688 C 1402.816406 1326.554688 1406.421875 1325.167969 1408.917969 1322.394531 C 1411.71875 1319.898438 1413.078125 1316.292969 1413.078125 1312.6875 C 1413.078125 1310.746094 1412.800781 1309.082031 1411.96875 1307.417969 C 1411.136719 1305.753906 1410.304688 1304.089844 1408.917969 1302.703125 C 1403.675781 1297.710938 1394.496094 1297.710938 1389.53125 1302.703125 C 1388.117188 1304.089844 1387.007812 1305.753906 1386.480469 1307.417969 C 1385.648438 1309.082031 1385.371094 1310.746094 1385.371094 1312.6875 C 1385.371094 1316.292969 1386.757812 1319.898438 1389.53125 1322.394531 C 1392.027344 1325.167969 1395.632812 1326.554688 1399.238281 1326.554688 Z M 1399.210938 1326.554688 " fill-opacity="1" fill-rule="nonzero"/><g clip-path="url(#b46ffabe1c)"><path fill="#000000" d="M 705.925781 441.972656 C 706.09375 416.769531 726.996094 396.480469 752.589844 396.652344 C 754.09375 396.652344 755.597656 396.722656 757.097656 396.871094 C 758.597656 397.019531 760.085938 397.238281 761.5625 397.53125 C 763.039062 397.824219 764.5 398.1875 765.941406 398.625 C 767.382812 399.0625 768.800781 399.566406 770.191406 400.144531 C 771.585938 400.71875 772.945312 401.359375 774.273438 402.070312 C 775.601562 402.78125 776.894531 403.550781 778.148438 404.390625 C 779.398438 405.226562 780.609375 406.121094 781.773438 407.074219 C 782.9375 408.03125 784.054688 409.039062 785.121094 410.105469 C 786.1875 411.167969 787.195312 412.285156 788.152344 413.445312 C 789.109375 414.609375 790.007812 415.820312 790.84375 417.070312 C 791.679688 418.324219 792.457031 419.613281 793.167969 420.941406 C 793.878906 422.269531 794.523438 423.628906 795.097656 425.019531 C 795.675781 426.410156 796.183594 427.828125 796.621094 429.269531 C 797.058594 430.710938 797.425781 432.171875 797.722656 433.648438 C 798.015625 435.125 798.238281 436.613281 798.386719 438.113281 C 798.535156 439.609375 798.609375 441.113281 798.609375 442.621094 C 798.441406 467.824219 777.539062 488.109375 751.949219 487.941406 C 750.441406 487.941406 748.9375 487.867188 747.441406 487.722656 C 745.941406 487.574219 744.453125 487.355469 742.972656 487.0625 C 741.496094 486.769531 740.039062 486.402344 738.59375 485.96875 C 737.152344 485.53125 735.738281 485.023438 734.34375 484.449219 C 732.953125 483.875 731.59375 483.230469 730.261719 482.519531 C 728.933594 481.8125 727.644531 481.039062 726.390625 480.203125 C 725.136719 479.367188 723.929688 478.472656 722.761719 477.515625 C 721.597656 476.5625 720.484375 475.550781 719.417969 474.488281 C 718.351562 473.421875 717.339844 472.308594 716.382812 471.144531 C 715.425781 469.980469 714.53125 468.773438 713.691406 467.519531 C 712.855469 466.269531 712.082031 464.980469 711.371094 463.652344 C 710.660156 462.324219 710.015625 460.960938 709.4375 459.570312 C 708.859375 458.179688 708.351562 456.761719 707.914062 455.324219 C 707.476562 453.882812 707.109375 452.421875 706.816406 450.945312 C 706.519531 449.46875 706.300781 447.980469 706.152344 446.480469 C 706.003906 444.980469 705.925781 443.476562 705.925781 441.972656 Z M 705.925781 441.972656 " fill-opacity="1" fill-rule="nonzero"/></g><g clip-path="url(#a2fcf9086d)"><path fill="#000000" d="M 845.53125 760.445312 L 799.210938 760.445312 C 799.019531 760.441406 798.859375 760.503906 798.722656 760.640625 C 798.589844 760.773438 798.523438 760.9375 798.53125 761.125 C 798.785156 801.488281 798.84375 838.917969 798.699219 873.421875 C 798.613281 893.859375 770.160156 899.121094 761.714844 880.679688 C 760.632812 878.324219 760.101562 873.824219 760.164062 867.226562 C 760.3125 849.742188 760.390625 814.246094 760.398438 760.746094 C 760.402344 760.558594 760.339844 760.402344 760.210938 760.269531 C 760.082031 760.136719 759.925781 760.070312 759.742188 760.066406 L 745.960938 760.066406 C 745.789062 760.066406 745.640625 760.128906 745.523438 760.253906 C 745.402344 760.378906 745.34375 760.527344 745.347656 760.703125 C 745.664062 803.164062 745.703125 840.453125 745.453125 872.574219 C 745.285156 892.964844 716.890625 899.820312 709.273438 880.8125 C 707.992188 877.078125 707.410156 873.234375 707.53125 869.289062 C 707.425781 846.648438 707.335938 810.757812 707.257812 761.621094 C 707.257812 761.457031 707.226562 761.300781 707.164062 761.152344 C 707.101562 761 707.011719 760.867188 706.894531 760.75 C 706.78125 760.636719 706.648438 760.546875 706.496094 760.484375 C 706.347656 760.421875 706.1875 760.390625 706.027344 760.390625 L 658.394531 760.390625 C 658.269531 760.390625 658.148438 760.363281 658.035156 760.308594 C 657.921875 760.253906 657.824219 760.175781 657.75 760.078125 C 657.671875 759.976562 657.621094 759.863281 657.597656 759.742188 C 657.570312 759.617188 657.574219 759.496094 657.609375 759.371094 L 710.296875 563.152344 C 710.34375 562.960938 710.347656 562.769531 710.308594 562.578125 C 710.269531 562.386719 710.1875 562.210938 710.070312 562.054688 C 709.949219 561.902344 709.800781 561.78125 709.625 561.691406 C 709.449219 561.605469 709.261719 561.5625 709.066406 561.558594 L 699.558594 561.558594 C 699.273438 561.5625 698.996094 561.605469 698.726562 561.699219 C 698.457031 561.789062 698.207031 561.921875 697.980469 562.09375 C 697.75 562.265625 697.554688 562.46875 697.394531 562.703125 C 697.234375 562.941406 697.113281 563.195312 697.035156 563.46875 C 686.042969 600.054688 675.652344 635.363281 665.863281 669.398438 C 659.898438 690.195312 627.226562 681.917969 633.777344 659.617188 C 638.636719 643.023438 650.773438 602.105469 670.191406 536.859375 C 675.707031 518.332031 693.769531 507.277344 712.78125 503.761719 C 714.605469 503.421875 722.859375 503.21875 737.542969 503.148438 C 768.441406 503 784.652344 502.964844 786.179688 503.042969 C 807.761719 504.035156 829.300781 517.132812 835.730469 538.605469 C 850.539062 588.113281 861.546875 625.773438 868.746094 651.582031 C 871.613281 661.808594 873.839844 667.667969 867.753906 675.625 C 862.851562 681.988281 852.644531 683.816406 845.960938 678.914062 C 844.125 677.558594 842.5625 675.9375 841.28125 674.046875 C 840 672.15625 839.070312 670.109375 838.492188 667.898438 C 826.441406 626.140625 816.425781 591.375 808.445312 563.605469 C 808.351562 563.292969 808.214844 563 808.03125 562.734375 C 807.84375 562.46875 807.621094 562.234375 807.363281 562.039062 C 807.101562 561.84375 806.816406 561.695312 806.507812 561.59375 C 806.199219 561.492188 805.882812 561.4375 805.558594 561.4375 L 796.414062 561.4375 C 796.167969 561.4375 795.933594 561.492188 795.710938 561.601562 C 795.488281 561.710938 795.304688 561.859375 795.152344 562.054688 C 795 562.25 794.898438 562.46875 794.847656 562.707031 C 794.796875 562.949219 794.804688 563.1875 794.863281 563.425781 L 846.828125 758.769531 C 846.878906 758.96875 846.882812 759.171875 846.839844 759.371094 C 846.800781 759.574219 846.714844 759.757812 846.589844 759.921875 C 846.464844 760.085938 846.308594 760.214844 846.121094 760.308594 C 845.9375 760.398438 845.738281 760.445312 845.53125 760.445312 Z M 845.53125 760.445312 " fill-opacity="1" fill-rule="nonzero"/></g><g clip-path="url(#eea77ed3d1)"><path fill="#000000" d="M 547.332031 442.261719 C 547.332031 443.765625 547.257812 445.269531 547.109375 446.769531 C 546.960938 448.265625 546.742188 449.753906 546.449219 451.230469 C 546.152344 452.707031 545.789062 454.167969 545.351562 455.609375 C 544.914062 457.050781 544.40625 458.464844 543.832031 459.859375 C 543.253906 461.25 542.613281 462.609375 541.902344 463.9375 C 541.191406 465.265625 540.417969 466.554688 539.582031 467.808594 C 538.746094 469.058594 537.851562 470.269531 536.894531 471.433594 C 535.9375 472.597656 534.929688 473.710938 533.863281 474.777344 C 532.800781 475.839844 531.683594 476.851562 530.519531 477.808594 C 529.355469 478.761719 528.148438 479.660156 526.894531 480.496094 C 525.644531 481.332031 524.351562 482.105469 523.023438 482.816406 C 521.695312 483.527344 520.335938 484.167969 518.945312 484.746094 C 517.554688 485.320312 516.136719 485.828125 514.695312 486.265625 C 513.257812 486.703125 511.796875 487.070312 510.320312 487.363281 C 508.84375 487.65625 507.355469 487.878906 505.855469 488.023438 C 504.355469 488.171875 502.855469 488.246094 501.347656 488.246094 C 499.84375 488.246094 498.339844 488.171875 496.839844 488.023438 C 495.34375 487.878906 493.855469 487.65625 492.378906 487.363281 C 490.898438 487.070312 489.441406 486.703125 488 486.265625 C 486.558594 485.828125 485.140625 485.324219 483.75 484.746094 C 482.359375 484.171875 481 483.527344 479.671875 482.816406 C 478.34375 482.109375 477.054688 481.335938 475.800781 480.496094 C 474.546875 479.660156 473.339844 478.765625 472.175781 477.808594 C 471.011719 476.855469 469.898438 475.84375 468.832031 474.78125 C 467.765625 473.714844 466.757812 472.601562 465.800781 471.4375 C 464.847656 470.273438 463.949219 469.0625 463.113281 467.8125 C 462.277344 466.558594 461.503906 465.269531 460.792969 463.941406 C 460.082031 462.613281 459.441406 461.253906 458.863281 459.863281 C 458.285156 458.46875 457.78125 457.054688 457.34375 455.613281 C 456.90625 454.171875 456.539062 452.710938 456.246094 451.234375 C 455.953125 449.757812 455.730469 448.269531 455.582031 446.769531 C 455.4375 445.273438 455.363281 443.769531 455.363281 442.265625 C 455.363281 440.757812 455.4375 439.253906 455.582031 437.757812 C 455.730469 436.257812 455.953125 434.769531 456.246094 433.292969 C 456.539062 431.816406 456.90625 430.355469 457.339844 428.914062 C 457.777344 427.472656 458.285156 426.058594 458.863281 424.667969 C 459.4375 423.273438 460.082031 421.914062 460.789062 420.585938 C 461.5 419.257812 462.273438 417.96875 463.109375 416.714844 C 463.945312 415.464844 464.84375 414.253906 465.796875 413.089844 C 466.753906 411.925781 467.765625 410.8125 468.828125 409.746094 C 469.894531 408.683594 471.007812 407.671875 472.171875 406.71875 C 473.335938 405.761719 474.542969 404.867188 475.796875 404.027344 C 477.050781 403.191406 478.339844 402.417969 479.667969 401.707031 C 480.996094 401 482.355469 400.355469 483.746094 399.777344 C 485.136719 399.203125 486.554688 398.695312 487.996094 398.257812 C 489.4375 397.820312 490.894531 397.457031 492.371094 397.160156 C 493.851562 396.867188 495.335938 396.648438 496.835938 396.5 C 498.335938 396.351562 499.835938 396.277344 501.34375 396.277344 C 502.851562 396.277344 504.351562 396.351562 505.851562 396.496094 C 507.351562 396.644531 508.839844 396.867188 510.316406 397.160156 C 511.792969 397.453125 513.253906 397.816406 514.695312 398.253906 C 516.136719 398.691406 517.550781 399.199219 518.941406 399.773438 C 520.335938 400.351562 521.695312 400.996094 523.023438 401.703125 C 524.351562 402.414062 525.640625 403.1875 526.894531 404.023438 C 528.144531 404.859375 529.355469 405.757812 530.519531 406.710938 C 531.683594 407.667969 532.796875 408.675781 533.863281 409.742188 C 534.929688 410.808594 535.9375 411.921875 536.894531 413.085938 C 537.847656 414.25 538.746094 415.457031 539.582031 416.710938 C 540.417969 417.964844 541.191406 419.253906 541.902344 420.582031 C 542.613281 421.910156 543.253906 423.269531 543.832031 424.660156 C 544.40625 426.054688 544.914062 427.46875 545.351562 428.910156 C 545.789062 430.351562 546.15625 431.8125 546.449219 433.289062 C 546.742188 434.765625 546.960938 436.253906 547.109375 437.753906 C 547.257812 439.25 547.332031 440.753906 547.332031 442.261719 Z M 547.332031 442.261719 " fill-opacity="1" fill-rule="nonzero"/></g><g clip-path="url(#0bf44cd809)"><path fill="#000000" d="M 502 503.820312 C 514.160156 503.820312 533.90625 503.785156 561.234375 503.714844 C 582.007812 503.652344 598.769531 517.316406 598.8125 538.621094 C 598.960938 609.476562 599.039062 655.078125 599.046875 675.425781 C 599.027344 684.082031 597.984375 689.773438 595.886719 692.488281 C 589.285156 701.082031 573.859375 701.910156 568.613281 691.679688 C 567.148438 688.816406 566.425781 684.234375 566.449219 677.886719 C 566.492188 639.15625 566.503906 600.574219 566.492188 562.132812 C 566.488281 561.992188 566.4375 561.875 566.339844 561.773438 C 566.242188 561.675781 566.121094 561.625 565.980469 561.625 L 552.890625 561.625 C 552.730469 561.621094 552.59375 561.675781 552.476562 561.785156 C 552.359375 561.898438 552.300781 562.03125 552.292969 562.191406 C 552.316406 656.472656 552.371094 758.933594 552.464844 869.570312 C 552.484375 894.695312 518.515625 900.296875 510.5625 878.234375 C 509.691406 875.835938 509.285156 871.804688 509.308594 866.140625 C 509.628906 813.746094 509.726562 758.757812 509.609375 701.175781 C 509.609375 701.039062 509.582031 700.90625 509.53125 700.78125 C 509.476562 700.652344 509.402344 700.542969 509.304688 700.445312 C 509.207031 700.347656 509.09375 700.277344 508.964844 700.226562 C 508.835938 700.175781 508.707031 700.152344 508.566406 700.15625 C 506.445312 700.199219 504.28125 700.222656 502.035156 700.222656 C 499.785156 700.222656 497.621094 700.199219 495.5 700.15625 C 495.363281 700.152344 495.230469 700.175781 495.101562 700.226562 C 494.976562 700.277344 494.863281 700.347656 494.765625 700.445312 C 494.667969 700.542969 494.589844 700.652344 494.539062 700.78125 C 494.484375 700.90625 494.460938 701.039062 494.460938 701.175781 C 494.375 758.75 494.488281 813.738281 494.800781 866.140625 C 494.84375 871.804688 494.417969 875.835938 493.546875 878.234375 C 485.609375 900.304688 451.644531 894.722656 451.644531 869.597656 C 451.707031 758.957031 451.742188 656.5 451.75 562.21875 C 451.746094 562.0625 451.6875 561.925781 451.570312 561.816406 C 451.453125 561.703125 451.316406 561.652344 451.15625 561.652344 L 438.042969 561.652344 C 437.902344 561.648438 437.78125 561.699219 437.683594 561.800781 C 437.582031 561.898438 437.535156 562.019531 437.535156 562.160156 C 437.515625 600.605469 437.535156 639.191406 437.601562 677.917969 C 437.621094 684.238281 436.898438 688.835938 435.433594 691.707031 C 430.195312 701.9375 414.765625 701.109375 408.164062 692.515625 C 406.066406 689.792969 405.027344 684.105469 405.003906 675.449219 C 405.003906 655.097656 405.070312 609.496094 405.195312 538.640625 C 405.238281 517.335938 422.003906 503.671875 442.757812 503.734375 C 470.085938 503.800781 489.835938 503.828125 502 503.820312 Z M 502 503.820312 " fill-opacity="1" fill-rule="nonzero"/></g></g></g></g></svg>
